<svg width="25" height="24" viewBox="0 0 25 24" fill="none" xmlns="http://www.w3.org/2000/svg">
<path d="M17.6641 6.66602H18.9974M8.9974 2.66602H16.9974C18.4119 2.66602 19.7684 3.22792 20.7686 4.22811C21.7688 5.22831 22.3307 6.58486 22.3307 7.99935V15.9993C22.3307 17.4138 21.7688 18.7704 20.7686 19.7706C19.7684 20.7708 18.4119 21.3327 16.9974 21.3327H8.9974C7.58291 21.3327 6.22635 20.7708 5.22616 19.7706C4.22597 18.7704 3.66406 17.4138 3.66406 15.9993V7.99935C3.66406 6.58486 4.22597 5.22831 5.22616 4.22811C6.22635 3.22792 7.58291 2.66602 8.9974 2.66602ZM12.9974 15.9993C11.9365 15.9993 10.9191 15.5779 10.169 14.8278C9.41882 14.0776 8.9974 13.0602 8.9974 11.9993C8.9974 10.9385 9.41882 9.92107 10.169 9.17092C10.9191 8.42078 11.9365 7.99935 12.9974 7.99935C14.0583 7.99935 15.0757 8.42078 15.8258 9.17092C16.576 9.92107 16.9974 10.9385 16.9974 11.9993C16.9974 13.0602 16.576 14.0776 15.8258 14.8278C15.0757 15.5779 14.0583 15.9993 12.9974 15.9993Z" stroke="white" stroke-width="2"/>
</svg>
