<svg width="356" height="72" viewBox="0 0 356 72" fill="none" xmlns="http://www.w3.org/2000/svg">
<rect width="356" height="72" rx="16.1055" fill="#43B74A"/>
<path d="M95.803 35.9856H92.7224V33.8182H95.176C95.8939 33.8182 96.4755 33.7092 96.9208 33.4911C97.366 33.2639 97.6932 32.9459 97.9022 32.5369C98.1112 32.128 98.2157 31.6464 98.2157 31.0921C98.2157 30.6377 98.0976 30.2197 97.8613 29.838C97.6341 29.4563 97.2797 29.1519 96.7981 28.9247C96.3165 28.6885 95.7031 28.5703 94.9579 28.5703C94.3945 28.5703 93.8811 28.6703 93.4176 28.8702C92.9541 29.0701 92.5861 29.3518 92.3135 29.7153C92.0409 30.0697 91.9046 30.5014 91.9046 31.0103H87.8289C87.8289 30.1379 88.0152 29.3564 88.3878 28.6657C88.7694 27.966 89.2874 27.3753 89.9417 26.8937C90.6051 26.403 91.3684 26.0304 92.2317 25.776C93.095 25.5215 94.0037 25.3943 94.9579 25.3943C96.0756 25.3943 97.0843 25.517 97.984 25.7623C98.8836 25.9986 99.656 26.353 100.301 26.8256C100.946 27.2981 101.442 27.8842 101.787 28.584C102.132 29.2837 102.305 30.097 102.305 31.0239C102.305 31.7054 102.151 32.3461 101.842 32.9459C101.533 33.5456 101.092 34.0727 100.519 34.5271C99.9468 34.9814 99.2607 35.3404 98.4611 35.6039C97.6614 35.8584 96.7754 35.9856 95.803 35.9856ZM92.7224 34.7997H95.803C96.8844 34.7997 97.8431 34.9133 98.6792 35.1405C99.5243 35.3676 100.238 35.6993 100.819 36.1355C101.41 36.5717 101.855 37.1124 102.155 37.7576C102.464 38.3937 102.619 39.1252 102.619 39.9522C102.619 40.8791 102.428 41.7015 102.046 42.4194C101.673 43.1373 101.142 43.7461 100.451 44.2459C99.7696 44.7458 98.9609 45.1229 98.0249 45.3773C97.098 45.6318 96.0756 45.759 94.9579 45.759C94.0673 45.759 93.1813 45.6499 92.2999 45.4318C91.4184 45.2047 90.6187 44.8593 89.9008 44.3959C89.1829 43.9324 88.6104 43.3372 88.1833 42.6102C87.7562 41.8832 87.5426 41.0109 87.5426 39.9931H91.6456C91.6456 40.4747 91.7864 40.9154 92.0681 41.3153C92.3498 41.706 92.7406 42.0196 93.2404 42.2558C93.7402 42.483 94.3127 42.5966 94.9579 42.5966C95.7121 42.5966 96.3528 42.4785 96.8799 42.2422C97.416 42.0059 97.8204 41.6833 98.093 41.2744C98.3747 40.8564 98.5156 40.3975 98.5156 39.8977C98.5156 39.3615 98.4429 38.9071 98.2975 38.5346C98.1521 38.162 97.9385 37.8576 97.6568 37.6213C97.3751 37.3759 97.0253 37.1987 96.6072 37.0897C96.1983 36.9806 95.7212 36.9261 95.176 36.9261H92.7224V34.7997ZM113.36 42.174V35.6039C113.36 35.1314 113.282 34.727 113.128 34.3908C112.974 34.0454 112.733 33.7774 112.406 33.5865C112.087 33.3957 111.674 33.3003 111.165 33.3003C110.729 33.3003 110.352 33.3775 110.034 33.532C109.716 33.6774 109.47 33.8909 109.298 34.1727C109.125 34.4453 109.039 34.7679 109.039 35.1405H105.113C105.113 34.5134 105.258 33.9182 105.549 33.3548C105.84 32.7914 106.263 32.2961 106.817 31.869C107.371 31.4328 108.03 31.0921 108.793 30.8467C109.566 30.6013 110.429 30.4787 111.383 30.4787C112.528 30.4787 113.546 30.6695 114.437 31.0512C115.327 31.4328 116.027 32.0053 116.536 32.7687C117.054 33.532 117.313 34.4862 117.313 35.6312V41.9423C117.313 42.7511 117.363 43.4145 117.463 43.9324C117.563 44.4413 117.708 44.8866 117.899 45.2683V45.5H113.932C113.741 45.1002 113.596 44.6004 113.496 44.0006C113.405 43.3917 113.36 42.7829 113.36 42.174ZM113.878 36.5172L113.905 38.739H111.71C111.192 38.739 110.743 38.7981 110.361 38.9162C109.979 39.0344 109.666 39.2025 109.42 39.4206C109.175 39.6296 108.993 39.8749 108.875 40.1567C108.766 40.4384 108.712 40.7473 108.712 41.0836C108.712 41.4198 108.789 41.7242 108.943 41.9968C109.098 42.2604 109.32 42.4694 109.611 42.6239C109.902 42.7693 110.243 42.842 110.634 42.842C111.224 42.842 111.738 42.7238 112.174 42.4876C112.61 42.2513 112.946 41.9605 113.183 41.6152C113.428 41.2699 113.555 40.9427 113.564 40.6337L114.6 42.2967C114.455 42.6693 114.255 43.0555 114 43.4554C113.755 43.8552 113.442 44.2323 113.06 44.5867C112.678 44.932 112.219 45.2183 111.683 45.4455C111.147 45.6636 110.511 45.7726 109.775 45.7726C108.839 45.7726 107.989 45.5863 107.226 45.2137C106.472 44.8321 105.872 44.3096 105.426 43.6462C104.99 42.9737 104.772 42.2104 104.772 41.3562C104.772 40.5838 104.918 39.8977 105.208 39.2979C105.499 38.6981 105.926 38.1938 106.49 37.7849C107.062 37.3668 107.776 37.0533 108.63 36.8443C109.484 36.6262 110.474 36.5172 111.601 36.5172H113.878ZM126.432 42.7056C126.913 42.7056 127.341 42.6148 127.713 42.433C128.086 42.2422 128.377 41.9787 128.586 41.6424C128.804 41.2971 128.917 40.8927 128.926 40.4293H132.62C132.611 41.4652 132.334 42.3876 131.789 43.1964C131.244 43.996 130.512 44.6276 129.594 45.0911C128.676 45.5454 127.65 45.7726 126.514 45.7726C125.369 45.7726 124.369 45.5818 123.515 45.2001C122.67 44.8185 121.965 44.2914 121.402 43.6189C120.839 42.9374 120.416 42.1468 120.134 41.2471C119.853 40.3384 119.712 39.3661 119.712 38.3301V37.9348C119.712 36.8898 119.853 35.9174 120.134 35.0178C120.416 34.109 120.839 33.3184 121.402 32.646C121.965 31.9644 122.67 31.4328 123.515 31.0512C124.36 30.6695 125.35 30.4787 126.486 30.4787C127.695 30.4787 128.754 30.7104 129.662 31.1738C130.58 31.6373 131.298 32.3007 131.816 33.164C132.343 34.0182 132.611 35.0314 132.62 36.2037H128.926C128.917 35.713 128.813 35.2677 128.613 34.8678C128.422 34.468 128.14 34.1499 127.768 33.9137C127.404 33.6683 126.954 33.5456 126.418 33.5456C125.846 33.5456 125.378 33.6683 125.014 33.9137C124.651 34.1499 124.369 34.4771 124.169 34.8951C123.969 35.304 123.828 35.772 123.747 36.2991C123.674 36.8171 123.637 37.3623 123.637 37.9348V38.3301C123.637 38.9026 123.674 39.4524 123.747 39.9795C123.819 40.5065 123.956 40.9745 124.155 41.3834C124.364 41.7924 124.651 42.115 125.014 42.3512C125.378 42.5875 125.85 42.7056 126.432 42.7056ZM144.82 30.7513V33.8319H137.568V30.7513H144.82ZM147.696 30.7513V45.5H143.77V30.7513H147.696ZM136.587 30.7513H140.444L140.049 38.1938C139.995 39.257 139.881 40.193 139.708 41.0018C139.536 41.8105 139.304 42.5012 139.013 43.0737C138.732 43.6462 138.391 44.1142 137.991 44.4777C137.6 44.8321 137.141 45.0911 136.614 45.2546C136.096 45.4182 135.524 45.5 134.897 45.5H133.697L133.656 42.4058L134.161 42.3512C134.451 42.324 134.706 42.2422 134.924 42.1059C135.151 41.9605 135.342 41.756 135.496 41.4925C135.66 41.2199 135.796 40.8791 135.905 40.4702C136.014 40.0522 136.101 39.5614 136.164 38.998C136.237 38.4346 136.287 37.7849 136.314 37.0488L136.587 30.7513ZM157.524 45.7726C156.379 45.7726 155.352 45.5909 154.443 45.2274C153.535 44.8548 152.762 44.3414 152.126 43.6871C151.499 43.0328 151.018 42.274 150.681 41.4107C150.345 40.5383 150.177 39.6114 150.177 38.63V38.0847C150.177 36.967 150.336 35.9447 150.654 35.0178C150.972 34.0909 151.427 33.2866 152.017 32.6051C152.617 31.9235 153.344 31.401 154.198 31.0375C155.052 30.6649 156.016 30.4787 157.088 30.4787C158.133 30.4787 159.06 30.6513 159.869 30.9966C160.677 31.342 161.354 31.8327 161.9 32.4688C162.454 33.1049 162.872 33.8682 163.154 34.7588C163.435 35.6403 163.576 36.6217 163.576 37.7031V39.3388H151.854V36.7216H159.719V36.4218C159.719 35.8765 159.619 35.3904 159.419 34.9633C159.228 34.5271 158.937 34.1817 158.546 33.9273C158.156 33.6729 157.656 33.5456 157.047 33.5456C156.529 33.5456 156.084 33.6592 155.711 33.8864C155.339 34.1136 155.034 34.4316 154.798 34.8406C154.571 35.2495 154.398 35.7311 154.28 36.2855C154.171 36.8307 154.116 37.4305 154.116 38.0847V38.63C154.116 39.2207 154.198 39.7659 154.362 40.2657C154.534 40.7655 154.775 41.1972 155.084 41.5606C155.402 41.9241 155.784 42.2058 156.229 42.4058C156.684 42.6057 157.197 42.7056 157.769 42.7056C158.478 42.7056 159.137 42.5693 159.746 42.2967C160.364 42.015 160.895 41.5925 161.341 41.029L163.249 43.1009C162.94 43.5462 162.518 43.9733 161.981 44.3823C161.454 44.7912 160.818 45.1274 160.073 45.391C159.328 45.6454 158.478 45.7726 157.524 45.7726ZM168.47 30.7513H172.395L172.273 35.6857C172.236 37.2669 172.055 38.6254 171.728 39.7614C171.4 40.8973 170.964 41.8514 170.419 42.6239C169.874 43.3963 169.251 44.0142 168.552 44.4777C167.861 44.932 167.134 45.2728 166.371 45.5H165.635L165.594 42.4739L166.003 42.433C166.466 41.9514 166.848 41.4834 167.148 41.029C167.447 40.5656 167.679 40.0794 167.843 39.5705C168.006 39.0616 168.124 38.4937 168.197 37.8667C168.279 37.2396 168.329 36.5126 168.347 35.6857L168.47 30.7513ZM169.533 30.7513H179.306V45.5H175.394V33.9H169.533V30.7513ZM164.735 42.433H181.419V49.9301H177.493V45.5H168.756V49.9301H164.735V42.433ZM187.171 40.0203L192.12 30.7513H196.045V45.5H192.12V36.2173L187.171 45.5H183.246V30.7513H187.171V40.0203ZM216.124 36.708V39.7614H208.627V36.708H216.124ZM209.935 30.7513V45.5H206.009V30.7513H209.935ZM218.782 30.7513V45.5H214.842V30.7513H218.782ZM228.623 45.7726C227.478 45.7726 226.451 45.5909 225.543 45.2274C224.634 44.8548 223.862 44.3414 223.225 43.6871C222.598 43.0328 222.117 42.274 221.781 41.4107C221.444 40.5383 221.276 39.6114 221.276 38.63V38.0847C221.276 36.967 221.435 35.9447 221.753 35.0178C222.071 34.0909 222.526 33.2866 223.116 32.6051C223.716 31.9235 224.443 31.401 225.297 31.0375C226.152 30.6649 227.115 30.4787 228.187 30.4787C229.232 30.4787 230.159 30.6513 230.968 30.9966C231.777 31.342 232.454 31.8327 232.999 32.4688C233.553 33.1049 233.971 33.8682 234.253 34.7588C234.535 35.6403 234.675 36.6217 234.675 37.7031V39.3388H222.953V36.7216H230.818V36.4218C230.818 35.8765 230.718 35.3904 230.518 34.9633C230.327 34.5271 230.036 34.1817 229.646 33.9273C229.255 33.6729 228.755 33.5456 228.146 33.5456C227.628 33.5456 227.183 33.6592 226.81 33.8864C226.438 34.1136 226.133 34.4316 225.897 34.8406C225.67 35.2495 225.497 35.7311 225.379 36.2855C225.27 36.8307 225.216 37.4305 225.216 38.0847V38.63C225.216 39.2207 225.297 39.7659 225.461 40.2657C225.634 40.7655 225.874 41.1972 226.183 41.5606C226.501 41.9241 226.883 42.2058 227.328 42.4058C227.783 42.6057 228.296 42.7056 228.869 42.7056C229.577 42.7056 230.236 42.5693 230.845 42.2967C231.463 42.015 231.995 41.5925 232.44 41.029L234.348 43.1009C234.039 43.5462 233.617 43.9733 233.081 44.3823C232.554 44.7912 231.917 45.1274 231.172 45.391C230.427 45.6454 229.577 45.7726 228.623 45.7726ZM226.974 24.5492L229.659 28.7475H226.442L222.707 24.5492H226.974Z" fill="white"/>
<path d="M262.664 30.666H263.997M253.997 26.666H261.997C263.412 26.666 264.768 27.2279 265.769 28.2281C266.769 29.2283 267.331 30.5849 267.331 31.9993V39.9993C267.331 41.4138 266.769 42.7704 265.769 43.7706C264.768 44.7708 263.412 45.3327 261.997 45.3327H253.997C252.583 45.3327 251.226 44.7708 250.226 43.7706C249.226 42.7704 248.664 41.4138 248.664 39.9993V31.9993C248.664 30.5849 249.226 29.2283 250.226 28.2281C251.226 27.2279 252.583 26.666 253.997 26.666ZM257.997 39.9993C256.937 39.9993 255.919 39.5779 255.169 38.8278C254.419 38.0776 253.997 37.0602 253.997 35.9993C253.997 34.9385 254.419 33.9211 255.169 33.1709C255.919 32.4208 256.937 31.9993 257.997 31.9993C259.058 31.9993 260.076 32.4208 260.826 33.1709C261.576 33.9211 261.997 34.9385 261.997 35.9993C261.997 37.0602 261.576 38.0776 260.826 38.8278C260.076 39.5779 259.058 39.9993 257.997 39.9993Z" stroke="white" stroke-width="2"/>
</svg>
