<svg width="166" height="63" viewBox="0 0 166 63" fill="none" xmlns="http://www.w3.org/2000/svg">
<path d="M17.6457 17.6554C17.6086 17.7938 17.5356 17.9003 17.4266 17.9749C17.3352 18.0393 17.2249 18.0913 17.0957 18.1309C16.9803 18.1741 16.8599 18.2085 16.7344 18.2342C16.6227 18.2636 16.5142 18.3087 16.409 18.3695C16.3388 18.41 16.2788 18.468 16.2289 18.5436C16.1965 18.6091 16.1489 18.6482 16.0862 18.6611C15.9846 18.708 15.8836 18.7254 15.783 18.7133C15.6825 18.7012 15.5732 18.6941 15.4551 18.6922C15.3545 18.68 15.2503 18.6818 15.1423 18.6973C15.038 18.699 14.9383 18.739 14.8432 18.8174C14.1744 18.7123 13.507 18.6298 12.841 18.57C12.1887 18.5139 11.5306 18.3968 10.8665 18.2189C10.742 18.1855 10.6 18.1623 10.4404 18.1492C10.2983 18.1259 10.1632 18.1046 10.0349 18.085C9.73699 18.0349 9.4409 17.9778 9.14666 17.9137C8.86625 17.8534 8.58079 17.7844 8.29025 17.7065C7.88904 17.599 7.49154 17.4777 7.09774 17.3425C6.70765 17.1935 6.33004 17.0256 5.9649 16.8388C5.8866 16.7437 5.79074 16.6587 5.67735 16.5838C5.56396 16.5089 5.44365 16.4322 5.31642 16.3536C5.20303 16.2788 5.09841 16.1988 5.00256 16.1138C4.9067 16.0288 4.84594 15.9236 4.82025 15.7981C4.61644 15.7286 4.44079 15.6371 4.29331 15.5234C4.15966 15.4135 4.03478 15.2985 3.91867 15.1784C3.82011 15.0482 3.71463 14.9161 3.60223 14.7822C3.48983 14.6483 3.35297 14.5226 3.19165 14.4053C3.1052 14.1745 3.00998 13.9488 2.90599 13.7282C2.81954 13.4974 2.68923 13.292 2.51507 13.1119C2.544 12.8379 2.54526 12.5565 2.51885 12.2677C2.50628 11.9826 2.48493 11.7025 2.45481 11.4276C2.44224 11.1425 2.4435 10.8611 2.45859 10.5834C2.45985 10.302 2.49755 10.0229 2.57169 9.74622C2.62359 9.55253 2.71428 9.32475 2.84376 9.06288C2.97324 8.80102 3.11656 8.54285 3.27371 8.2884C3.4484 8.02381 3.63136 7.78369 3.8226 7.56803C4.01384 7.35236 4.19211 7.18512 4.3574 7.0663C4.41003 7.03592 4.46772 7.0143 4.53047 7.00146C4.59322 6.98862 4.65277 6.96009 4.7091 6.91587C4.87069 6.81089 5.03177 6.73542 5.19236 6.68949C5.35666 6.62971 5.53158 6.55796 5.71713 6.47422C5.7873 6.43371 5.84549 6.38257 5.89169 6.32081C5.95173 6.26276 6.02375 6.21533 6.10775 6.17853C6.15667 6.16198 6.21387 6.16989 6.27933 6.20226C6.35864 6.23834 6.43152 6.24304 6.49798 6.21636C6.56444 6.18968 6.60508 6.14868 6.61991 6.09334C6.63474 6.038 6.66847 5.99514 6.72109 5.96475C6.73863 5.95462 6.78014 5.96575 6.84561 5.99812C6.91478 6.01665 6.95628 6.02777 6.97012 6.03148C7.06696 6.05743 7.19432 6.02483 7.3522 5.93368C7.51379 5.82869 7.64164 5.76657 7.73577 5.74731C7.84745 5.71792 7.95356 5.70928 8.05411 5.72139C8.15837 5.71967 8.27325 5.70597 8.39876 5.68029C8.57318 5.63805 8.73513 5.61472 8.8846 5.61029C9.05161 5.59573 9.22048 5.57425 9.3912 5.54585C9.48162 5.54042 9.57069 5.51239 9.6584 5.46175C9.74611 5.41111 9.82825 5.38122 9.90484 5.37209C10.0405 5.36395 10.1793 5.37149 10.3214 5.39473C10.481 5.40784 10.6249 5.42416 10.7531 5.44368C10.8989 5.45309 11.0377 5.46063 11.1696 5.46633C11.3191 5.46189 11.4622 5.42608 11.5988 5.35889L11.7648 5.40338C12.0138 5.4701 12.2652 5.50039 12.5189 5.49424C12.7727 5.48808 13.024 5.51837 13.2731 5.58509C13.3423 5.60363 13.4423 5.64527 13.5732 5.71001C13.7025 5.67049 13.8362 5.66927 13.9746 5.70634C14.2098 5.76936 14.4283 5.89463 14.6301 6.08217C14.8357 6.25586 15.0629 6.37608 15.312 6.4428L15.4365 6.47617C15.4918 6.491 15.549 6.49891 15.6081 6.4999C15.7195 6.69286 15.8771 6.82406 16.0809 6.8935C16.2985 6.96665 16.4686 7.07895 16.5912 7.23041C16.6658 7.33937 16.7159 7.4566 16.7416 7.58211C16.7811 7.71132 16.8049 7.84375 16.8131 7.97938L16.8375 8.38629C16.8456 8.52192 16.8713 8.64743 16.9145 8.76281C16.7119 9.24233 16.3969 9.58793 15.9695 9.79962C15.5596 10.0012 15.0987 10.0334 14.5868 9.89623C14.3931 9.84433 14.2327 9.77909 14.1054 9.70052C13.9957 9.61182 13.893 9.52497 13.7971 9.43997C13.7151 9.35868 13.6262 9.27554 13.5303 9.19054C13.4345 9.10555 13.3211 9.03068 13.1901 8.96594C13.4165 8.73002 13.593 8.45852 13.7198 8.15144C13.5861 8.04149 13.4469 7.95229 13.3022 7.88384C13.1574 7.81539 13.0251 7.72805 12.9053 7.6218C12.5058 7.61855 12.1206 7.58949 11.7498 7.53461C11.3965 7.46961 11.0325 7.52776 10.6577 7.70907C10.5922 7.6767 10.5198 7.64247 10.4405 7.60639C10.3751 7.57402 10.3077 7.54857 10.2386 7.53004C10.1555 7.50779 9.97285 7.52557 9.69045 7.58335C9.41177 7.62731 9.10677 7.68645 8.77546 7.76079C8.45799 7.83883 8.14743 7.91873 7.84379 8.00047C7.55399 8.08593 7.35325 8.14336 7.24157 8.17275C7.11236 8.21226 6.99327 8.26932 6.88432 8.34393C6.77536 8.41853 6.66454 8.50005 6.55188 8.58848C6.44292 8.66308 6.33396 8.73769 6.225 8.81229C6.11975 8.87306 5.99931 8.90751 5.86367 8.91565C5.79523 9.06042 5.71159 9.17888 5.61276 9.27102C5.51393 9.36316 5.40632 9.46037 5.28995 9.56264C5.20939 9.80796 5.11499 10.0496 5.00676 10.2875C4.91237 10.5291 4.8318 10.7744 4.76508 11.0234L4.69279 11.2932C4.67055 11.3762 4.66399 11.456 4.67313 11.5326C4.76329 11.7495 4.82021 11.9798 4.84391 12.2234C4.88144 12.4707 4.99976 12.6655 5.19888 12.8079C5.19789 12.8669 5.1817 12.8996 5.15032 12.9061C5.13278 12.9162 5.10968 12.9471 5.08102 12.9987C5.12325 13.1731 5.19365 13.3254 5.29221 13.4556C5.40832 13.5757 5.52257 13.7027 5.63497 13.8366C5.75108 13.9567 5.85841 14.0819 5.95698 14.2121C6.05554 14.3423 6.11902 14.4927 6.14742 14.6635C6.35494 14.7191 6.53936 14.8055 6.70068 14.9229C6.87583 15.044 7.0353 15.1683 7.17907 15.2958C7.33669 15.427 7.48232 15.5475 7.61596 15.6575C7.76345 15.7712 7.9202 15.8502 8.08622 15.8947C8.2384 15.9355 8.38231 15.9518 8.51794 15.9437C8.848 16.1507 9.18546 16.3301 9.53034 16.4818C9.89276 16.6234 10.2607 16.7443 10.6343 16.8444C11.0908 16.9667 11.5548 17.0614 12.0262 17.1284C12.4976 17.1953 12.9671 17.2693 13.4348 17.3501C13.6082 17.3669 13.771 17.3957 13.9232 17.4365C14.0754 17.4773 14.2313 17.5042 14.3908 17.5173C14.592 17.5415 14.7959 17.4998 15.0027 17.3921C15.2233 17.2881 15.4259 17.2238 15.6105 17.1991C15.7367 17.3367 15.9036 17.4333 16.1111 17.4889C16.3463 17.5519 16.5838 17.5785 16.8237 17.5687C17.0673 17.545 17.3067 17.5646 17.5419 17.6276L17.6457 17.6554ZM32.025 15.1248C31.9326 15.2484 31.842 15.365 31.7533 15.4746C31.6646 15.5843 31.586 15.7116 31.5176 15.8563C31.4022 15.8996 31.2767 15.9252 31.1411 15.9334C31.023 15.9314 30.8961 15.9345 30.7605 15.9426C30.6286 15.9369 30.4998 15.9469 30.3743 15.9726C30.2664 15.9881 30.1717 16.0369 30.0905 16.1189C29.9933 16.3154 29.9207 16.5035 29.8725 16.6833C29.8095 16.9185 29.7972 17.1303 29.8358 17.3185C29.7609 17.4319 29.698 17.5559 29.6471 17.6906C29.5962 17.8252 29.5541 17.9548 29.5207 18.0793C29.3984 18.5358 29.3314 19.0072 29.3197 19.4934C29.3118 19.9658 29.2535 20.4321 29.1451 20.8924C29.1265 20.9616 29.0992 21.0358 29.0631 21.1151C29.0271 21.1944 28.9997 21.2686 28.9812 21.3378C28.9034 21.6283 28.9621 21.8517 29.1576 22.0078C29.0975 22.0659 29.0601 22.1226 29.0453 22.1779C29.0156 22.2886 29.0035 22.3892 29.0089 22.4796C29.0143 22.57 28.9972 22.6618 28.9574 22.7549C28.9895 22.9118 29.0253 23.0549 29.0648 23.1841C29.108 23.2995 29.1231 23.4369 29.11 23.5965C28.9612 23.7643 28.7955 23.9126 28.6126 24.0416C28.4335 24.1567 28.2848 24.3244 28.1664 24.5448C28.1148 24.5161 28.0544 24.4925 27.9852 24.474C27.8883 24.448 27.8067 24.4484 27.7402 24.4751C27.6738 24.5018 27.6124 24.5372 27.556 24.5814C27.5098 24.6432 27.4586 24.6962 27.4022 24.7404C27.3422 24.7984 27.2739 24.832 27.1973 24.8412L27.135 24.8245C27.0621 24.8198 27.0017 24.7962 26.9538 24.7537C26.916 24.7287 26.8764 24.7107 26.8349 24.6996C26.8072 24.6922 26.7481 24.6912 26.6577 24.6966C26.5841 24.5286 26.5525 24.3422 26.5629 24.1374C26.5696 23.9464 26.597 23.761 26.6452 23.5811C26.6971 23.3874 26.7711 23.2219 26.8672 23.0846C26.7484 22.9193 26.7016 22.7066 26.7268 22.4464C26.7659 22.19 26.7869 21.9732 26.7899 21.796C26.8164 21.2545 26.8184 20.7212 26.796 20.1962C26.7874 19.6749 26.8378 19.1546 26.9473 18.6353C26.9854 18.4379 27.0285 18.2493 27.0767 18.0695L27.3658 16.9903C27.414 16.8105 27.4673 16.6394 27.5256 16.4771C27.559 16.3526 27.5974 16.2368 27.6409 16.1299C27.7019 16.0128 27.7491 15.892 27.7825 15.7674C27.827 15.6014 27.8143 15.4275 27.7444 15.2456C26.751 15.024 25.7689 14.9536 24.7982 15.0345C23.8451 15.1054 22.8752 15.2384 21.8887 15.4338C21.7481 15.7371 21.6301 16.0392 21.5347 16.3398C21.4393 16.6405 21.349 16.9499 21.2637 17.2681L21.0191 18.1812C20.9264 18.5271 20.8624 18.8213 20.827 19.0639C20.7887 19.4837 20.9059 19.8487 21.1786 20.159C21.4689 20.4592 21.7721 20.711 22.0884 20.9144C22.0189 21.1182 21.9292 21.2869 21.8193 21.4206C21.713 21.5404 21.5879 21.6477 21.4438 21.7426C21.3173 21.8273 21.177 21.9083 21.0228 21.9857C20.8687 22.063 20.7108 22.1541 20.5492 22.2591C20.4571 22.1603 20.3594 22.0822 20.2561 22.0249C20.1528 21.9675 20.0389 21.9222 19.9144 21.8888C19.7936 21.8416 19.6728 21.7944 19.552 21.7472C19.4312 21.7 19.3141 21.639 19.2007 21.5641L18.911 20.8192C18.8144 20.5709 18.704 20.3189 18.5797 20.0632L18.6298 19.8764C18.7299 19.5029 18.7571 19.1247 18.7114 18.7417C18.6657 18.3588 18.6565 17.9782 18.6837 17.5999C18.7586 17.4865 18.8196 17.3694 18.8668 17.2486C18.914 17.1278 18.9561 16.9983 18.9932 16.8599C19.0673 16.5832 19.1258 16.3097 19.1686 16.0394C19.2252 15.7729 19.3025 15.5119 19.4006 15.2564L19.2969 15.2286C19.1723 15.1953 19.0316 15.1946 18.8748 15.2267C18.7216 15.245 18.5647 15.2771 18.4041 15.323C18.2611 15.3589 18.118 15.3947 17.975 15.4305C17.8495 15.4562 17.7452 15.4579 17.6622 15.4356C17.6207 15.4245 17.581 15.4065 17.5432 15.3815C17.5054 15.3566 17.4589 15.3367 17.4035 15.3218C17.3344 15.3033 17.2439 15.3087 17.1323 15.3381C17.0206 15.3675 16.9001 15.402 16.7709 15.4415C16.6316 15.4635 16.4922 15.4854 16.3529 15.5074C16.2136 15.5294 16.0816 15.5237 15.9571 15.4903C15.7634 15.4384 15.592 15.3035 15.4428 15.0856C15.4448 14.9675 15.4657 14.8619 15.5054 14.7688C15.5314 14.6719 15.5592 14.5682 15.5888 14.4575C15.6185 14.3468 15.6293 14.2236 15.6211 14.088C15.7662 13.9341 15.9347 13.831 16.1266 13.7786C16.3085 13.7087 16.5004 13.6564 16.7025 13.6215C16.8945 13.5692 17.0915 13.5256 17.2936 13.4908C17.4994 13.4421 17.685 13.3584 17.8503 13.2396L17.9748 13.2729C18.1685 13.3248 18.3525 13.3297 18.5269 13.2874C18.7152 13.2489 18.9112 13.2644 19.1151 13.3338C19.1917 13.3247 19.2679 13.2339 19.3437 13.0614L19.4212 13.1044C19.7256 13.186 20.0231 13.1545 20.3139 13.01C20.696 12.193 21.0522 11.3617 21.3825 10.5161C21.7129 9.67041 21.9949 8.81179 22.2284 7.94019C22.2507 7.85718 22.2453 7.76676 22.2122 7.66892C22.2141 7.55083 22.2281 7.44336 22.2541 7.34652L22.3375 7.03523C22.3783 6.88305 22.4278 6.7258 22.4861 6.56349C22.5444 6.40118 22.6235 6.24443 22.7233 6.09324C22.8839 6.0473 23.0403 6.04472 23.1925 6.0855C23.3723 6.13369 23.5379 6.20769 23.6891 6.30752C23.8578 6.39721 24.0215 6.47814 24.1801 6.55029C24.2712 6.70817 24.3241 6.87062 24.3386 7.03763C24.367 7.20835 24.3659 7.37857 24.3353 7.54829C24.3083 7.70419 24.2657 7.86329 24.2074 8.0256C24.1666 8.17778 24.1258 8.32996 24.085 8.48215C24.0035 8.78652 23.9584 9.09323 23.9497 9.4023C23.941 9.71137 23.8996 10.0043 23.8255 10.2809C23.8069 10.3501 23.7644 10.398 23.698 10.4247C23.6491 10.4413 23.6042 10.5256 23.5634 10.6778C23.5227 10.83 23.4939 10.9928 23.477 11.1662C23.4602 11.3397 23.4296 11.5094 23.3851 11.6754C23.3332 11.8691 23.2518 12.0623 23.1408 12.255C23.0299 12.4477 22.9277 12.6353 22.8343 12.8179C23.6829 12.9711 24.5616 13.0954 25.4702 13.1906C26.3789 13.2858 27.2683 13.2868 28.1385 13.1938C28.1597 13.1698 28.1777 13.1301 28.1926 13.0748C28.2148 12.9918 28.2301 12.9069 28.2386 12.8202C28.247 12.7335 28.2641 12.6417 28.2901 12.5449C28.3346 12.3788 28.4251 12.2622 28.5618 12.1951C28.5964 11.7891 28.6518 11.3888 28.7279 10.994C28.804 10.5992 28.894 10.2081 28.9978 9.82075L29.3147 8.63787C29.4185 8.2505 29.5154 7.86127 29.6054 7.47018C29.7346 7.43067 29.8614 7.42759 29.986 7.46095C30.1381 7.50173 30.2654 7.5803 30.3676 7.69668C30.4874 7.80292 30.6373 7.88014 30.8171 7.92833C30.9416 7.96169 31.051 7.96874 31.1451 7.94948C31.2602 8.12861 31.3158 8.33626 31.3118 8.57245C31.3078 8.80864 31.2951 9.04989 31.2736 9.2962C31.2521 9.54252 31.2305 9.78883 31.209 10.0351C31.2051 10.2713 31.2606 10.479 31.3757 10.6581L31.3798 10.7259C31.365 10.7813 31.3262 10.8154 31.2634 10.8282C31.2007 10.841 31.1582 10.889 31.1359 10.972L31.1137 11.055C31.1097 11.2912 31.0901 11.5306 31.0547 11.7732C31.0194 12.0158 30.9753 12.2635 30.9224 12.5162C30.887 12.7588 30.8586 13.0033 30.8371 13.2496C30.8193 13.482 30.8397 13.71 30.8985 13.9333C30.9714 13.938 31.0632 13.9552 31.1739 13.9848C31.4506 14.059 31.639 14.2133 31.7393 14.4478C31.8572 14.6721 31.9524 14.8978 32.025 15.1248ZM47.4291 15.4934L47.4069 15.5764C47.3026 15.5781 47.2356 15.6343 47.206 15.745C47.0353 15.7734 46.8613 15.7861 46.6842 15.7831C46.5108 15.7663 46.3387 15.7721 46.168 15.8005C46.0195 15.7459 45.8622 15.6964 45.6962 15.6519C45.5477 15.5973 45.3974 15.5496 45.2452 15.5088C44.8302 15.3976 44.4114 15.3002 43.989 15.2167C43.5665 15.1331 43.1515 15.0219 42.7438 14.883C42.5205 14.9418 42.282 14.9743 42.0282 14.9804C41.792 14.9765 41.5702 14.9467 41.3627 14.8911C41.1966 14.8466 41.0569 14.7869 40.9435 14.712C40.567 14.7891 40.1633 14.8292 39.7325 14.8324C39.3154 14.8392 38.8915 14.8443 38.4606 14.8474C38.0334 14.8368 37.6146 14.8506 37.2039 14.8888C36.8109 14.917 36.4445 15.0116 36.1048 15.1726C36.0252 15.3589 35.9525 15.547 35.8868 15.737C35.8248 15.9131 35.7697 16.0911 35.7215 16.271C35.6696 16.4647 35.6283 16.6464 35.5977 16.8161C35.5809 16.9896 35.5848 17.1685 35.6095 17.3531C35.6712 17.3993 35.7418 17.4404 35.8211 17.4765C35.9142 17.5163 35.9954 17.5455 36.0645 17.564C36.1337 17.5825 36.2047 17.5942 36.2776 17.5989C36.3542 17.5897 36.4156 17.5543 36.4618 17.4925C36.6768 17.5205 36.8861 17.5691 37.0899 17.6386C37.2975 17.6942 37.505 17.7498 37.7125 17.8054C37.92 17.861 38.1225 17.9078 38.3199 17.9459C38.5311 17.9877 38.741 18.0068 38.9495 18.0034C39.1857 18.0074 39.4094 18.0302 39.6206 18.072C39.8457 18.1175 40.0638 18.1611 40.2751 18.2029C40.4863 18.2447 40.7063 18.2814 40.9351 18.313C41.1676 18.3308 41.4162 18.3159 41.6811 18.2682C41.8424 18.3856 42.013 18.4684 42.1928 18.5166C42.3865 18.5685 42.5696 18.6323 42.742 18.7082C42.8203 18.8033 42.876 18.8998 42.9091 18.9976C42.9561 19.0992 42.9647 19.2053 42.935 19.316C42.8831 19.5097 42.7621 19.6848 42.5718 19.8414C42.3816 19.9981 42.2227 20.1483 42.0952 20.292L41.8669 20.2309C41.5349 20.1419 41.1968 20.1032 40.8527 20.1148C40.526 20.1162 40.187 20.1366 39.8354 20.1758C39.5014 20.205 39.1623 20.2253 38.8181 20.2369C38.4915 20.2384 38.1622 20.1946 37.8302 20.1056C37.7748 20.0908 37.731 20.1161 37.6986 20.1816C37.6838 20.2369 37.6588 20.2747 37.6237 20.295C37.5583 20.2626 37.4564 20.2279 37.318 20.1908C36.9998 20.1056 36.6862 20.0586 36.3771 20.0499C36.068 20.0412 35.7613 19.9961 35.4569 19.9146C35.3739 19.8923 35.2909 19.8701 35.2079 19.8479C35.1286 19.8118 35.0493 19.7757 34.97 19.7396C34.8712 19.8318 34.7609 19.8838 34.6391 19.8956C34.521 19.8936 34.4024 19.9212 34.2833 19.9782C34.2084 20.0916 34.14 20.2364 34.078 20.4125C34.0298 20.5924 33.9728 20.7773 33.9071 20.9673C33.8589 21.1471 33.7987 21.3164 33.7266 21.475C33.6544 21.6336 33.5638 21.7502 33.4549 21.8248C33.4502 21.8977 33.4981 21.9402 33.5987 21.9523C33.7029 21.9505 33.7402 22.005 33.7106 22.1157C33.6772 22.2402 33.6281 22.3679 33.5634 22.4989C33.4987 22.6298 33.4478 22.7645 33.4107 22.9028C33.3403 23.1657 33.2901 23.4636 33.2602 23.7966C33.2478 24.1195 33.2686 24.4291 33.3227 24.7253C33.3906 25.0253 33.5112 25.2948 33.6843 25.534C33.8612 25.7593 34.1157 25.9165 34.4477 26.0054C34.669 26.0647 34.8877 26.0788 35.1036 26.0477C35.3196 26.0166 35.5157 25.9209 35.6921 25.7606L35.8015 25.7676C35.8568 25.7825 35.9034 25.8024 35.9412 25.8273C35.9928 25.856 36.0463 25.8777 36.1016 25.8925C36.1846 25.9148 36.3014 25.8942 36.4518 25.8307C36.6198 25.7571 36.7985 25.6715 36.9877 25.5739C37.1908 25.4801 37.392 25.3931 37.5914 25.3131C37.7945 25.2192 37.9796 25.165 38.1466 25.1504C38.2953 24.9827 38.4371 24.8131 38.5721 24.6417C38.7208 24.4739 38.8999 24.3588 39.1094 24.2963L39.2707 23.6945C39.4498 23.5794 39.6322 23.48 39.8177 23.3962C40.0171 23.3162 40.1842 23.1905 40.3191 23.019C40.3809 23.0652 40.4376 23.1027 40.4892 23.1313C40.5547 23.1637 40.622 23.1891 40.6912 23.2077C40.7604 23.2262 40.8314 23.2378 40.9043 23.2425C40.991 23.2509 41.0726 23.2506 41.1492 23.2414C41.2191 23.4233 41.2558 23.6185 41.2592 23.827C41.2802 24.0254 41.3169 24.2205 41.3693 24.4125C41.178 24.6282 40.953 24.8867 40.6944 25.1881C40.4357 25.4895 40.1631 25.7872 39.8768 26.0811C39.5904 26.3751 39.2939 26.6515 38.9873 26.9104C38.6982 27.1592 38.4277 27.3388 38.1757 27.4492C38.123 27.4796 38.0201 27.5039 37.867 27.5222C37.6851 27.5921 37.519 27.6588 37.3685 27.7222C37.2143 27.7996 37.0634 27.8926 36.9156 28.0012C36.481 28.0183 36.0492 28.0805 35.62 28.1879C35.2047 28.2991 34.7913 28.4033 34.3797 28.5006C34.2248 28.4146 34.0505 28.3456 33.8568 28.2937C33.6908 28.2493 33.5229 28.2117 33.3532 28.181C33.1797 28.1642 32.9962 28.1299 32.8025 28.078C32.7657 27.994 32.6956 27.9233 32.5924 27.866C32.4992 27.8262 32.4832 27.7478 32.5442 27.6307C32.0813 27.4769 31.736 27.2436 31.5085 26.9305C31.2773 26.6313 31.1024 26.2879 30.9838 25.9003C30.8791 25.5163 30.8164 25.114 30.7957 24.6932C30.775 24.2725 30.7436 23.8637 30.7017 23.467L30.7183 23.4047C30.7369 23.3355 30.7757 23.3015 30.8347 23.3024C30.8938 23.3034 30.9326 23.2693 30.9511 23.2002C30.9585 23.1725 30.9571 23.1499 30.947 23.1324C30.9463 22.9691 30.9469 22.8284 30.9489 22.7103C30.9509 22.5922 30.9723 22.457 31.0131 22.3048C31.0724 22.0835 31.1437 21.8728 31.2269 21.6726C31.3139 21.4587 31.3871 21.241 31.4464 21.0197C31.5057 20.7983 31.5299 20.5972 31.5191 20.4164C31.5929 20.362 31.6655 20.2851 31.7366 20.1855C31.7977 20.0684 31.8518 19.9495 31.899 19.8287C31.9462 19.7079 31.9864 19.5852 32.0198 19.4607C32.067 19.3399 32.1174 19.2348 32.171 19.1453C32.1565 18.9783 32.1433 18.8339 32.1314 18.7121C32.1233 18.5765 32.1414 18.4257 32.1859 18.2596L32.2249 18.1144C32.4262 17.9162 32.6087 17.7056 32.7723 17.4826C32.9358 17.2595 33.1082 17.0313 33.2893 16.7981L33.306 16.7359C33.4135 16.3347 33.5071 15.9298 33.587 15.5211C33.6668 15.1125 33.7605 14.7076 33.868 14.3064L33.9736 13.9121C34.0107 13.7737 34.0528 13.6441 34.1 13.5233C34.2255 13.4977 34.3289 13.4438 34.4102 13.3618C34.4915 13.2798 34.5949 13.2259 34.7204 13.2002L35.4053 13.3837L35.5854 13.2096C35.6454 13.1515 35.6935 13.0829 35.7296 13.0036C35.8929 13.0028 36.053 12.9864 36.2098 12.9543C36.3843 12.9121 36.5449 12.8661 36.6916 12.8165C36.915 12.7577 37.1138 12.7072 37.2883 12.665C37.4802 12.6126 37.6597 12.5791 37.8267 12.5646C38.0113 12.5399 38.1991 12.5309 38.39 12.5376C38.581 12.5443 38.7978 12.5653 39.0404 12.6006C39.1511 12.6303 39.2258 12.6281 39.2646 12.594C39.3172 12.5636 39.3855 12.53 39.4695 12.4932C39.6281 12.5654 39.7868 12.6375 39.9454 12.7097C40.1077 12.768 40.2718 12.8194 40.4379 12.8639C40.7699 12.9528 41.0979 12.974 41.4218 12.9273C41.8368 13.0385 42.2468 13.141 42.6517 13.2346C43.0705 13.332 43.4874 13.4363 43.9024 13.5475C44.2621 13.6439 44.6181 13.7541 44.9704 13.8782C45.3227 14.0022 45.6625 14.1452 45.9898 14.307C46.1255 14.2989 46.2694 14.3152 46.4216 14.356C46.5876 14.4005 46.748 14.4657 46.9029 14.5517C47.0754 14.6276 47.2483 14.6739 47.4218 14.6907C47.3948 14.8466 47.3942 14.9873 47.4199 15.1128C47.4631 15.2282 47.4662 15.3551 47.4291 15.4934ZM59.4616 28.86C59.4245 28.9983 59.3515 29.1048 59.2426 29.1794C59.1511 29.2439 59.0408 29.2959 58.9116 29.3354C58.7962 29.3786 58.6758 29.4131 58.5503 29.4388C58.4386 29.4681 58.3301 29.5132 58.2249 29.574C58.1547 29.6145 58.0947 29.6726 58.0448 29.7482C58.0124 29.8136 57.9648 29.8528 57.9021 29.8656C57.8005 29.9125 57.6995 29.93 57.5989 29.9178C57.4984 29.9057 57.3891 29.8987 57.271 29.8967C57.1704 29.8846 57.0662 29.8863 56.9582 29.9019C56.8539 29.9036 56.7543 29.9436 56.6591 30.0219C55.9904 29.9168 55.3229 29.8344 54.6569 29.7745C54.0047 29.7184 53.3465 29.6014 52.6824 29.4234C52.5579 29.3901 52.4159 29.3668 52.2563 29.3537C52.1142 29.3305 51.9791 29.3091 51.8508 29.2896C51.5529 29.2394 51.2568 29.1823 50.9626 29.1183C50.6822 29.058 50.3967 28.9889 50.1062 28.9111C49.705 28.8036 49.3074 28.6822 48.9137 28.547C48.5236 28.398 48.1459 28.2301 47.7808 28.0433C47.7025 27.9482 47.6067 27.8632 47.4933 27.7883C47.3799 27.7135 47.2596 27.6367 47.1323 27.5582C47.0189 27.4833 46.9143 27.4034 46.8185 27.3184C46.7226 27.2334 46.6618 27.1281 46.6362 27.0026C46.4323 26.9332 46.2567 26.8416 46.1092 26.728C45.9756 26.618 45.8507 26.503 45.7346 26.3829C45.636 26.2527 45.5305 26.1207 45.4181 25.9867C45.3057 25.8528 45.1689 25.7272 45.0076 25.6098C44.9211 25.3791 44.8259 25.1534 44.7219 24.9327C44.6354 24.702 44.5051 24.4965 44.331 24.3164C44.3599 24.0424 44.3612 23.761 44.3348 23.4722C44.3222 23.1871 44.3008 22.9071 44.2707 22.6321C44.2581 22.347 44.2594 22.0656 44.2745 21.7879C44.2758 21.5065 44.3135 21.2275 44.3876 20.9508C44.4395 20.7571 44.5302 20.5293 44.6597 20.2674C44.7891 20.0056 44.9325 19.7474 45.0896 19.4929C45.2643 19.2284 45.4473 18.9882 45.6385 18.7726C45.8298 18.5569 46.008 18.3897 46.1733 18.2708C46.2259 18.2405 46.2836 18.2188 46.3464 18.206C46.4091 18.1932 46.4687 18.1646 46.525 18.1204C46.6866 18.0154 46.8477 17.94 47.0083 17.894C47.1726 17.8343 47.3475 17.7625 47.533 17.6788C47.6032 17.6382 47.6614 17.5871 47.7076 17.5254C47.7676 17.4673 47.8397 17.4199 47.9237 17.3831C47.9726 17.3665 48.0298 17.3744 48.0952 17.4068C48.1745 17.4429 48.2474 17.4476 48.3139 17.4209C48.3803 17.3942 48.421 17.3532 48.4358 17.2979C48.4506 17.2425 48.4844 17.1997 48.537 17.1693C48.5545 17.1592 48.596 17.1703 48.6615 17.2027C48.7307 17.2212 48.7722 17.2323 48.786 17.236C48.8829 17.262 49.0102 17.2294 49.1681 17.1382C49.3297 17.0332 49.4576 16.9711 49.5517 16.9518C49.6634 16.9225 49.7695 16.9138 49.87 16.9259C49.9743 16.9242 50.0892 16.9105 50.2147 16.8848C50.3891 16.8426 50.551 16.8193 50.7005 16.8148C50.8675 16.8003 51.0364 16.7788 51.2071 16.7504C51.2975 16.745 51.3866 16.7169 51.4743 16.6663C51.562 16.6156 51.6442 16.5858 51.7208 16.5766C51.8564 16.5685 51.9952 16.576 52.1373 16.5993C52.2969 16.6124 52.4408 16.6287 52.569 16.6482C52.7148 16.6576 52.8536 16.6652 52.9856 16.6709C53.135 16.6664 53.2781 16.6306 53.4147 16.5634L53.5807 16.6079C53.8297 16.6746 54.0811 16.7049 54.3349 16.6988C54.5886 16.6926 54.84 16.7229 55.089 16.7896C55.1582 16.8082 55.2582 16.8498 55.3891 16.9145C55.5184 16.875 55.6521 16.8738 55.7905 16.9109C56.0257 16.9739 56.2442 17.0992 56.446 17.2867C56.6516 17.4604 56.8788 17.5806 57.1279 17.6473L57.2524 17.6807C57.3077 17.6955 57.3649 17.7034 57.424 17.7044C57.5354 17.8974 57.693 18.0286 57.8968 18.098C58.1145 18.1712 58.2845 18.2835 58.4071 18.4349C58.4817 18.5439 58.5318 18.6611 58.5575 18.7866C58.597 18.9159 58.6208 19.0483 58.629 19.1839L58.6534 19.5908C58.6615 19.7265 58.6872 19.852 58.7305 19.9673C58.5278 20.4469 58.2128 20.7925 57.7854 21.0042C57.3755 21.2057 56.9146 21.2379 56.4027 21.1008C56.209 21.0489 56.0486 20.9836 55.9213 20.9051C55.8117 20.8164 55.7089 20.7295 55.613 20.6445C55.531 20.5632 55.4421 20.4801 55.3462 20.3951C55.2504 20.3101 55.137 20.2352 55.0061 20.1705C55.2324 19.9346 55.4089 19.6631 55.5357 19.356C55.402 19.246 55.2628 19.1568 55.1181 19.0884C54.9733 19.0199 54.841 18.9326 54.7212 18.8263C54.3217 18.8231 53.9365 18.794 53.5657 18.7392C53.2124 18.6741 52.8484 18.7323 52.4736 18.9136C52.4081 18.8812 52.3357 18.847 52.2564 18.8109C52.191 18.7786 52.1236 18.7531 52.0545 18.7346C51.9715 18.7123 51.7888 18.7301 51.5064 18.7879C51.2277 18.8318 50.9227 18.891 50.5914 18.9653C50.2739 19.0434 49.9633 19.1233 49.6597 19.205C49.3699 19.2905 49.1692 19.3479 49.0575 19.3773C48.9283 19.4168 48.8092 19.4739 48.7002 19.5485C48.5913 19.6231 48.4805 19.7046 48.3678 19.793C48.2588 19.8676 48.1499 19.9422 48.0409 20.0168C47.9357 20.0776 47.8152 20.112 47.6796 20.1202C47.6111 20.265 47.5275 20.3834 47.4287 20.4756C47.3298 20.5677 47.2222 20.6649 47.1059 20.7672C47.0253 21.0125 46.9309 21.2541 46.8227 21.492C46.7283 21.7336 46.6477 21.979 46.581 22.228L46.5087 22.4978C46.4865 22.5808 46.4799 22.6606 46.489 22.7372C46.5792 22.9541 46.6361 23.1843 46.6598 23.4279C46.6973 23.6753 46.8157 23.8701 47.0148 24.0124C47.0138 24.0714 46.9976 24.1042 46.9662 24.1106C46.9487 24.1207 46.9256 24.1516 46.8969 24.2032C46.9392 24.3777 47.0096 24.53 47.1081 24.6602C47.2242 24.7803 47.3385 24.9073 47.4509 25.0412C47.567 25.1613 47.6743 25.2864 47.7729 25.4166C47.8715 25.5468 47.9349 25.6973 47.9633 25.868C48.1709 25.9236 48.3553 26.0101 48.5166 26.1275C48.6917 26.2485 48.8512 26.3728 48.995 26.5003C49.1526 26.6315 49.2982 26.7521 49.4319 26.862C49.5794 26.9757 49.7361 27.0548 49.9021 27.0992C50.0543 27.14 50.1982 27.1563 50.3339 27.1482C50.6639 27.3553 51.0014 27.5347 51.3462 27.6864C51.7087 27.828 52.0766 27.9488 52.4502 28.0489C52.9067 28.1712 53.3707 28.2659 53.8421 28.3329C54.3135 28.3999 54.783 28.4738 55.2507 28.5546C55.4241 28.5714 55.5869 28.6002 55.7391 28.641C55.8913 28.6818 56.0472 28.7087 56.2068 28.7218C56.4079 28.7461 56.6118 28.7043 56.8186 28.5966C57.0392 28.4926 57.2418 28.4283 57.4264 28.4036C57.5526 28.5412 57.7195 28.6378 57.927 28.6935C58.1622 28.7565 58.3998 28.7831 58.6396 28.7732C58.8832 28.7495 59.1226 28.7692 59.3578 28.8322L59.4616 28.86ZM74.9933 35.891C74.9637 36.0016 74.8912 36.0786 74.7758 36.1218C74.6604 36.165 74.5312 36.2045 74.3882 36.2404L73.9646 36.327C73.8252 36.349 73.7218 36.4029 73.6544 36.4886C73.5133 36.4063 73.3685 36.3379 73.2201 36.2832C73.0854 36.2323 72.9489 36.1884 72.8106 36.1513C72.6307 36.1031 72.4384 36.0738 72.2336 36.0634C72.0325 36.0392 71.8562 36.0883 71.7047 36.2109C71.643 36.1646 71.5844 36.1341 71.5291 36.1193L71.3631 36.0748C71.1556 36.0192 70.9374 35.9756 70.7086 35.9439C70.49 35.9298 70.2769 35.895 70.0694 35.8394C69.9587 35.8097 69.8499 35.7732 69.7429 35.7297C69.6498 35.6899 69.571 35.6243 69.5065 35.5329C69.3709 35.541 69.2339 35.5265 69.0955 35.4895C68.9157 35.4413 68.7501 35.3673 68.5989 35.2674C68.4478 35.1676 68.2984 35.0609 68.1509 34.9472C68.021 34.8234 67.8823 34.7047 67.7348 34.5911C67.5873 34.4774 67.4361 34.3776 67.2812 34.2916L67.2138 33.9621C67.0036 33.8613 66.8127 33.7434 66.6413 33.6085C66.4874 33.4635 66.3353 33.3115 66.1851 33.1527C66.0349 32.9938 65.8829 32.8419 65.729 32.6968C65.5926 32.5417 65.4401 32.4192 65.2713 32.3295C65.217 32.2557 65.1677 32.1906 65.1235 32.1342C65.083 32.0641 65.0619 31.9768 65.0601 31.8726C64.8914 31.7829 64.7402 31.6831 64.6066 31.5731L64.2319 31.2281C64.1158 31.108 63.9753 30.9962 63.8102 30.8926C63.6628 30.779 63.4733 30.6837 63.2418 30.6069C63.1921 30.4601 63.1061 30.311 62.9835 30.1596C62.861 30.0081 62.7237 29.912 62.5715 29.8712C62.4746 29.8453 62.393 29.8456 62.3265 29.8723L62.2987 29.9761C62.2542 30.1421 62.2582 30.3211 62.3105 30.513C62.3629 30.705 62.4559 30.856 62.5895 30.9659C62.5683 30.9899 62.5502 31.0295 62.5354 31.0849C62.5132 31.1679 62.5048 31.2546 62.5102 31.345C62.5295 31.4391 62.5838 31.513 62.6732 31.5666C62.5771 31.704 62.4653 31.8446 62.3378 31.9883C62.214 32.1183 62.0713 32.2357 61.9098 32.3407C61.7482 32.4457 61.5783 32.5262 61.4002 32.5823C61.2396 32.6282 61.0694 32.6271 60.8895 32.5789C60.8268 32.5918 60.7741 32.6222 60.7316 32.6701C60.703 32.7217 60.6725 32.7803 60.6401 32.8457C60.6253 32.9011 60.5966 32.9527 60.5541 33.0006C60.5254 33.0523 60.4866 33.0863 60.4377 33.1029C60.3787 33.1019 60.3007 33.0884 60.2039 33.0625C60.0655 33.0254 59.9535 32.9732 59.8678 32.9057C59.7821 32.8382 59.6931 32.7551 59.601 32.6563L59.6232 32.5733C59.6677 32.4072 59.6683 32.2665 59.6251 32.1512C59.5957 32.0395 59.5506 31.931 59.4899 31.8258C59.4467 31.7104 59.4034 31.595 59.3602 31.4796C59.3308 31.368 59.3384 31.2291 59.3828 31.0631C59.3339 31.0797 59.2799 31.0874 59.2209 31.0864C59.1757 31.0892 59.1406 31.1094 59.1156 31.1472C59.125 31.0014 59.1427 30.8801 59.1687 30.7833C59.2428 30.5066 59.3548 30.2549 59.5045 30.0281C59.6681 29.805 59.7869 29.5551 59.8611 29.2784L59.9445 28.9671C60.0297 28.6489 60.1062 28.3358 60.1739 28.0277C60.2417 27.7196 60.3163 27.4134 60.3978 27.109C60.4683 26.8462 60.5438 26.5921 60.6243 26.3468C60.7086 26.0876 60.8067 25.8322 60.9187 25.5804C61.3155 24.7081 61.6828 23.8353 62.0206 22.962C62.376 22.0785 62.7917 21.2187 63.2679 20.3824C63.2726 20.3095 63.2704 20.2348 63.2612 20.1582C63.2659 20.0853 63.2775 20.0143 63.2961 19.9451C63.3109 19.8898 63.3271 19.8571 63.3446 19.8469C63.4741 19.5851 63.6598 19.3902 63.9017 19.2622C64.1473 19.1204 64.4222 19.0903 64.7266 19.1718L64.7889 19.1885C64.9363 19.3022 65.0331 19.4393 65.079 19.5999C65.1425 19.7504 65.2748 19.8377 65.4759 19.8619C65.4684 19.8896 65.4541 19.9154 65.4329 19.9394C65.4255 19.9671 65.418 19.9947 65.4106 20.0224C65.3698 20.1746 65.3817 20.2964 65.4462 20.3878C65.5106 20.4792 65.5871 20.5813 65.6755 20.6939C65.5693 20.8137 65.4782 20.9599 65.4024 21.1323C65.3404 21.3084 65.2783 21.4846 65.2163 21.6607C65.1543 21.8369 65.0803 22.0024 64.9943 22.1573C64.9221 22.3159 64.8228 22.4376 64.6963 22.5223C64.7146 22.6755 64.7121 22.8231 64.6888 22.9652C64.6656 23.1072 64.6336 23.2543 64.5928 23.4065C64.552 23.5587 64.5025 23.7159 64.4442 23.8783C64.3896 24.0267 64.34 24.184 64.2955 24.35C64.2548 24.5022 64.2384 24.6461 64.2466 24.7817C64.5509 24.8633 64.7628 24.7644 64.8822 24.4849C65.2678 24.4845 65.6212 24.4383 65.9424 24.3464C66.2811 24.2444 66.6079 24.1318 66.9226 24.0085C67.2374 23.8853 67.5471 23.7533 67.8517 23.6125C68.1702 23.4754 68.5089 23.3734 68.8679 23.3065L68.879 23.2649C68.8976 23.1958 68.9294 23.1598 68.9746 23.1571C69.0236 23.1406 69.0472 23.0802 69.0454 22.9759C69.2715 22.9623 69.4685 22.9187 69.6365 22.8451C69.8221 22.7614 69.9957 22.667 70.1572 22.5621L70.6683 22.2319C70.8474 22.1168 71.0348 22.0261 71.2305 21.9599C71.4042 21.7544 71.5678 21.5313 71.7212 21.2907C71.8885 21.0538 72.0779 20.8451 72.2894 20.6645C72.5522 20.7349 72.8303 20.8317 73.1235 20.9547C73.4306 21.0815 73.6745 21.2506 73.855 21.4621C73.7977 21.5654 73.8257 21.6544 73.9391 21.7293C73.6313 22.2696 73.2621 22.7342 72.8317 23.123C72.405 23.498 71.9069 23.7797 71.3374 23.9682C71.2275 24.1018 71.1023 24.2091 70.962 24.2902C70.8217 24.3712 70.6813 24.4522 70.541 24.5332C70.4044 24.6004 70.2659 24.6745 70.1256 24.7555C69.9852 24.8366 69.8601 24.9439 69.7501 25.0776C69.5767 25.0607 69.4184 25.0702 69.2754 25.106C69.1462 25.1456 69.0133 25.1989 68.8766 25.2661C68.7575 25.3232 68.6246 25.3765 68.4779 25.4262C68.3487 25.4657 68.2093 25.4877 68.0598 25.4921C67.9121 25.6008 67.7492 25.6832 67.571 25.7392C67.4067 25.799 67.2355 25.8569 67.0574 25.913C66.8968 25.9589 66.7394 26.0206 66.5852 26.0979C66.4348 26.1614 66.3096 26.2687 66.2098 26.4199L65.6702 26.2753C65.4476 26.4974 65.1877 26.665 64.8905 26.7781C64.6108 26.8811 64.3261 26.9754 64.0363 27.0608C64.0333 27.2379 64.0723 27.3967 64.1533 27.537C64.2381 27.6635 64.3316 27.785 64.4338 27.9013C64.5499 28.0214 64.6573 28.1466 64.7558 28.2768C64.8719 28.3968 64.9617 28.5321 65.0252 28.6826C65.547 29.0596 66.0387 29.4657 66.5004 29.9008C66.9658 30.3221 67.3869 30.7982 67.7636 31.3292C67.795 31.3227 67.8314 31.3251 67.8729 31.3362C67.9836 31.3659 68.0643 31.4246 68.1149 31.5123C68.1693 31.5861 68.2605 31.6328 68.3888 31.6524C68.407 31.8055 68.4572 31.9228 68.5392 32.0041C68.6249 32.0715 68.7125 32.1321 68.8019 32.1857C68.9052 32.243 68.9978 32.3123 69.0798 32.3936C69.1619 32.4749 69.2051 32.5903 69.2095 32.7397C69.4133 32.8092 69.589 32.9007 69.7365 33.0144C69.8978 33.1318 70.0272 33.2851 70.1248 33.4743L70.3738 33.541C70.8165 33.6597 71.2343 33.8161 71.6271 34.0103C72.0199 34.2045 72.4308 34.3591 72.8596 34.474C73.081 34.5333 73.2991 34.577 73.5141 34.6049C73.7327 34.619 73.9519 34.6036 74.1715 34.5586C74.2296 34.6187 74.2945 34.6806 74.3664 34.7443C74.4383 34.8081 74.5227 34.8529 74.6195 34.8788C74.6887 34.8974 74.7962 34.9114 74.9419 34.9208C74.915 35.0766 74.9245 35.2349 74.9704 35.3955C75.0302 35.5598 75.0378 35.7249 74.9933 35.891ZM94.1216 38.5475C94.0107 38.7402 93.8744 38.889 93.7128 38.994C93.5513 39.099 93.3726 39.1846 93.1769 39.2508C92.9951 39.3207 92.8013 39.3799 92.5955 39.4286C92.3934 39.4634 92.1945 39.5139 91.9988 39.5801L91.729 39.5078C91.148 39.3521 90.7354 39.0933 90.4914 38.7313C90.2648 38.3593 90.1242 37.9434 90.0694 37.4839C90.0183 37.0105 90.0161 36.5206 90.0628 36.0142C90.1234 35.5114 90.1521 35.0446 90.1489 34.6137C89.9458 34.7076 89.763 34.8365 89.6004 35.0006C89.4416 35.1508 89.2758 35.2991 89.1031 35.4456C88.9442 35.5958 88.7683 35.7266 88.5753 35.838C88.3962 35.9531 88.1816 36.0068 87.9316 35.9992C87.8641 36.0849 87.7898 36.1688 87.7085 36.2508C87.641 36.3365 87.5856 36.4328 87.5421 36.5398C87.1932 36.6243 86.8646 36.7438 86.5563 36.8985C86.2479 37.0531 85.9377 37.2146 85.6257 37.3831C85.3136 37.5516 84.9965 37.7113 84.6744 37.8622C84.3697 38.003 84.0398 38.0999 83.6845 38.153C83.6744 38.1355 83.6486 38.1211 83.607 38.11C83.441 38.0655 83.2777 38.0663 83.1171 38.1122C82.9602 38.1443 82.7988 38.1381 82.6328 38.0936C82.5221 38.064 82.4239 38.0154 82.3382 37.948C82.2663 37.8842 82.1893 37.8117 82.1073 37.7304C82.0391 37.6528 81.9603 37.5872 81.8709 37.5336C81.7815 37.48 81.6796 37.4453 81.5652 37.4294C81.4936 37.1433 81.368 36.865 81.1884 36.5945C81.0263 36.3138 80.9547 36.0277 80.9735 35.7362C80.9792 35.6043 80.9918 35.4742 81.0113 35.346C81.0484 35.2076 81.0716 35.0656 81.081 34.9198C81.0951 34.7012 81.0954 34.4788 81.0818 34.2527C81.072 34.0129 81.0759 33.7767 81.0938 33.5442C81.263 33.1892 81.4416 32.7996 81.6294 32.3754C81.807 31.9337 81.9967 31.5026 82.1983 31.0821C82.4175 30.6515 82.6569 30.256 82.9166 29.8956C83.1938 29.525 83.4959 29.2278 83.8228 29.004L83.8409 28.8532C83.9003 28.6318 83.9974 28.4354 84.1323 28.264C84.2672 28.0925 84.4072 27.9299 84.5522 27.7759C84.6972 27.622 84.8284 27.4644 84.9458 27.3031C85.0632 27.1418 85.1307 26.9449 85.1485 26.7124C85.3368 26.6739 85.5283 26.6511 85.723 26.6439C85.9176 26.6368 86.1118 26.6591 86.3055 26.711C86.4854 26.7592 86.644 26.8314 86.7813 26.9275C86.724 27.0308 86.7539 27.1129 86.871 27.1739L86.8543 27.2362C86.7765 27.5267 86.6659 27.8011 86.5226 28.0592C86.3792 28.3174 86.2221 28.5719 86.0511 28.8226C85.8838 29.0595 85.7147 29.3034 85.5437 29.5541C85.3903 29.7947 85.2557 30.0478 85.1401 30.3134C85.081 30.3124 85.0321 30.329 84.9933 30.363C84.9684 30.4008 84.9434 30.4386 84.9185 30.4764C84.8935 30.5142 84.8635 30.5433 84.8284 30.5635C84.7933 30.5838 84.7481 30.5865 84.6928 30.5717C84.48 31.0336 84.2603 31.4938 84.0337 31.952C83.8247 32.4002 83.6553 32.8664 83.5256 33.3506C83.4477 33.6411 83.3957 33.946 83.3695 34.2652C83.3432 34.5844 83.3692 34.9027 83.4472 35.2202L83.5358 35.2217C83.688 35.2624 83.7963 35.3285 83.8608 35.42C83.9391 35.5151 84.045 35.6176 84.1787 35.7276C84.2968 35.7296 84.4098 35.7228 84.5178 35.7072C84.6295 35.6778 84.6951 35.599 84.7146 35.4708C84.8981 35.5052 85.0614 35.5044 85.2045 35.4686C85.3513 35.419 85.486 35.3587 85.6088 35.2878L85.998 35.0807C86.1346 35.0135 86.2845 34.9795 86.4479 34.9788C86.4701 34.8958 86.5075 34.8391 86.5602 34.8087L86.718 34.7176C86.7707 34.6872 86.8094 34.6531 86.8344 34.6153C86.8769 34.5674 86.9042 34.4931 86.9163 34.3926C87.086 34.4232 87.2217 34.4151 87.3232 34.3682C87.4386 34.3249 87.542 34.2711 87.6334 34.2066C87.7424 34.132 87.8444 34.0556 87.9395 33.9772C88.0347 33.8989 88.1468 33.84 88.2761 33.8005C88.4285 33.6189 88.6341 33.3775 88.8928 33.0761C89.1653 32.7784 89.4346 32.465 89.7007 32.136C89.9807 31.8106 90.2274 31.4986 90.4409 31.1999C90.6719 30.8911 90.8115 30.6468 90.8597 30.4669C90.8782 30.3978 90.8742 30.3299 90.8475 30.2635C90.8346 30.2007 90.8444 30.1366 90.8768 30.0712L90.8935 30.0089C91.0412 29.9002 91.1788 29.774 91.3063 29.6302C91.4476 29.4901 91.5871 29.357 91.7247 29.2307C91.8762 29.1082 92.0309 29.0014 92.1887 28.9102C92.3466 28.8191 92.5317 28.7649 92.7439 28.7476C92.9467 28.8761 93.1551 28.9838 93.369 29.0708C93.5968 29.1615 93.8034 29.2761 93.9886 29.4147C93.9098 29.7643 93.8369 30.1748 93.7699 30.6462C93.7029 31.1176 93.6959 31.5309 93.749 31.8862C93.7008 32.066 93.6476 32.2371 93.5893 32.3994C93.5448 32.5654 93.5003 32.7314 93.4558 32.8975C93.3817 33.1742 93.3126 33.4596 93.2486 33.7539C93.1984 34.0518 93.1745 34.3346 93.177 34.6021C93.0245 34.7837 92.9168 34.9921 92.8538 35.2273C92.7685 35.5455 92.7354 35.8628 92.7544 36.1793C92.7771 36.482 92.7666 36.7979 92.7228 37.1273C92.8359 37.4245 93.0378 37.612 93.3283 37.6899C93.3975 37.7084 93.4546 37.7163 93.4999 37.7136C93.5589 37.7146 93.6198 37.7087 93.6826 37.6958C93.7599 37.85 93.8234 38.0005 93.873 38.1472C93.9402 38.2838 94.0231 38.4173 94.1216 38.5475ZM105.584 42.4196C105.521 42.6548 105.403 42.8456 105.231 42.9921C105.076 43.1285 104.978 43.3249 104.939 43.5813C104.716 43.6401 104.518 43.7427 104.345 43.8892C104.173 44.0357 104.005 44.191 103.842 44.355C102.77 44.7052 101.66 44.9193 100.512 44.9973C99.3741 45.0928 98.2519 44.9923 97.1451 44.6957C97.0759 44.6772 97.0229 44.6259 96.9861 44.5419C96.9456 44.4718 96.9069 44.3947 96.8701 44.3107C96.8333 44.2267 96.7896 44.1408 96.739 44.0531C96.6985 43.9829 96.6367 43.9367 96.5537 43.9145C96.4569 43.8885 96.3752 43.8889 96.3087 43.9156C96.3162 43.8879 96.3236 43.8602 96.331 43.8326C96.3485 43.8225 96.361 43.8036 96.3684 43.7759C96.4129 43.6099 96.4385 43.4314 96.4452 43.2404C96.4482 43.0633 96.4719 42.8917 96.5164 42.7257C96.5683 42.532 96.6455 42.3821 96.748 42.2762L96.9971 42.3429C97.1354 42.38 97.2687 42.4083 97.3969 42.4278C97.5427 42.4372 97.6916 42.4623 97.8438 42.503C97.996 42.5438 98.1232 42.6224 98.2255 42.7388C98.9938 42.915 99.7503 42.9694 100.495 42.902C101.257 42.8245 102.024 42.7558 102.797 42.6958C102.948 42.5733 103.055 42.4239 103.117 42.2478C103.196 42.0615 103.3 41.8965 103.428 41.7527C103.149 41.352 102.846 41.0185 102.517 40.7524C102.205 40.4762 101.8 40.3009 101.301 40.2265C101.059 39.9688 100.775 39.7816 100.45 39.665C100.14 39.552 99.8256 39.4234 99.5084 39.2791C99.4291 39.243 99.3429 39.2051 99.2497 39.1653C99.1741 39.1154 99.0879 39.0775 98.9911 39.0515C98.9219 39.033 98.8472 39.0352 98.7669 39.0582C98.7041 39.071 98.6773 39.1157 98.6864 39.1923C98.6469 39.0631 98.5668 38.9749 98.446 38.9277C98.3427 38.8704 98.2607 38.7891 98.1999 38.6838C97.7646 38.5375 97.3976 38.3576 97.099 38.1442C96.804 37.9168 96.4781 37.6664 96.1214 37.3929C96.0219 37.3217 95.9186 37.2644 95.8116 37.2209C95.7222 37.1673 95.6365 37.0998 95.5544 37.0186C95.3388 36.8273 95.1827 36.6075 95.0861 36.3592C94.9895 36.1109 94.9331 35.8512 94.9168 35.5799C94.8904 35.2911 94.8935 35.0028 94.9261 34.7149C94.9588 34.4271 94.9858 34.1601 95.0074 33.9137C95.1912 33.7257 95.3699 33.529 95.5436 33.3234C95.7035 33.1142 95.8532 32.8874 95.9929 32.6431C96.087 32.6238 96.1793 32.6115 96.2697 32.6061C96.3601 32.6006 96.4593 32.5901 96.5673 32.5746C96.5608 32.5432 96.5632 32.5068 96.5743 32.4653C96.5929 32.3961 96.6321 32.3325 96.6922 32.2744C96.7661 32.2201 96.7984 32.1546 96.7893 32.078C97.1678 31.8829 97.5343 31.6771 97.8889 31.4607C98.261 31.2342 98.599 30.9689 98.9029 30.6648C99.1289 30.6512 99.3227 30.5919 99.4843 30.487C99.6459 30.382 99.8075 30.277 99.9691 30.172C100.134 30.0532 100.308 29.9588 100.49 29.8889C100.675 29.8052 100.889 29.781 101.132 29.8163C101.213 29.7343 101.31 29.6786 101.421 29.6492C101.537 29.606 101.65 29.5697 101.762 29.5403C101.874 29.5109 101.98 29.4728 102.082 29.4258C102.183 29.3789 102.272 29.2987 102.346 29.1853C102.568 29.2446 102.78 29.2569 102.982 29.2221C103.198 29.191 103.408 29.1511 103.614 29.1024C103.82 29.0538 104.024 29.012 104.226 28.9772C104.442 28.9461 104.661 28.9602 104.882 29.0195C104.937 29.0344 104.991 29.0561 105.042 29.0848C105.098 29.0996 105.158 29.1232 105.224 29.1556C105.295 29.2784 105.325 29.4126 105.316 29.5584C105.324 29.694 105.315 29.8398 105.288 29.9957C105.261 30.1516 105.227 30.3056 105.186 30.4578C105.159 30.6137 105.15 30.7594 105.158 30.8951C104.97 31.0969 104.769 31.295 104.554 31.4895C104.352 31.6876 104.118 31.8174 103.849 31.8789L103.807 31.8678C103.707 31.8556 103.623 31.8108 103.554 31.7332C103.486 31.6556 103.397 31.602 103.286 31.5724C103.217 31.5538 103.156 31.5597 103.103 31.5901L102.972 31.6661C102.937 31.6863 102.888 31.7029 102.825 31.7157C102.776 31.7323 102.714 31.7156 102.638 31.6657C102.426 31.683 102.318 31.7802 102.315 31.9573C102.045 31.9145 101.802 31.9382 101.585 32.0284C101.371 32.1047 101.167 32.2055 100.97 32.3307C100.777 32.4421 100.586 32.5466 100.397 32.6442C100.211 32.7279 100.013 32.7489 99.8014 32.7072C99.455 33.0592 99.0662 33.348 98.6351 33.5735C98.2178 33.8027 97.8447 34.0883 97.5158 34.4302C97.5277 34.552 97.5238 34.677 97.5043 34.8052C97.4848 34.9334 97.4703 35.0704 97.4609 35.2162C97.5409 35.4156 97.6473 35.5998 97.7799 35.7688C97.9264 35.9415 98.066 36.1123 98.1986 36.2813L98.2609 36.298C98.5376 36.3721 98.7787 36.4961 98.9842 36.6698C99.1935 36.8296 99.4295 36.9448 99.6924 37.0152C99.8308 37.0523 99.9558 37.0561 100.067 37.0267C100.405 37.2061 100.739 37.3698 101.07 37.5178C101.415 37.6696 101.764 37.8074 102.116 37.9315C102.288 38.0074 102.465 38.0694 102.644 38.1176C102.838 38.1695 103.012 38.2384 103.167 38.3244C103.308 38.4067 103.446 38.5028 103.579 38.6128C103.717 38.7089 103.852 38.8119 103.986 38.9219C104.267 39.1455 104.524 39.3774 104.756 39.6175C105.002 39.8614 105.204 40.1306 105.362 40.4251C105.524 40.7057 105.627 41.015 105.67 41.3527C105.717 41.6766 105.688 42.0322 105.584 42.4196ZM131.18 39.2021C131.063 39.3044 130.978 39.4298 130.923 39.5783C130.869 39.7267 130.825 39.8632 130.791 39.9877C130.747 40.1538 130.702 40.3198 130.658 40.4858C130.631 40.6417 130.597 40.7957 130.556 40.9479L130.473 41.2592C130.419 41.3486 130.352 41.4344 130.271 41.5164C130.189 41.5984 130.122 41.6841 130.068 41.7735C129.737 42.2335 129.503 42.7195 129.366 43.2314L129.355 43.2729C129.241 43.4203 129.131 43.554 129.025 43.6738C128.933 43.7973 128.84 43.9209 128.748 44.0444C128.659 44.1541 128.581 44.2813 128.512 44.4261C128.447 44.557 128.396 44.7212 128.358 44.9186C128.035 45.3509 127.66 45.725 127.234 46.041C126.812 46.3431 126.394 46.6609 125.978 46.9944C125.658 47.0272 125.349 47.1002 125.052 47.2133C124.768 47.3301 124.486 47.4696 124.206 47.6316C123.74 47.6551 123.275 47.7011 122.812 47.7697C122.349 47.8384 121.91 47.9804 121.497 48.1958C121.226 48.153 120.952 48.1241 120.675 48.109C120.397 48.0939 120.119 48.1083 119.84 48.1523L119.591 48.0856C119.467 48.0522 119.384 48.0004 119.344 47.9303C119.138 47.9789 118.933 47.998 118.728 47.9877C118.527 47.9634 118.329 47.9254 118.136 47.8735C117.886 47.8067 117.641 47.7262 117.4 47.6318C117.175 47.5273 116.944 47.4209 116.707 47.3126C116.62 47.0819 116.465 46.8847 116.242 46.7211C116.023 46.5437 115.829 46.3807 115.662 46.2319C115.409 45.571 115.261 44.9605 115.218 44.4005C115.179 43.8265 115.15 43.1885 115.131 42.4864C115.21 42.3001 115.309 42.1263 115.426 41.965C115.547 41.7898 115.63 41.5897 115.676 41.3647C116.118 40.712 116.617 40.1488 117.174 39.6753C117.748 39.1916 118.371 38.7504 119.041 38.3517C119.063 38.2687 119.096 38.2032 119.138 38.1553C119.194 38.1111 119.224 38.0299 119.226 37.9118C119.236 37.9294 119.261 37.9437 119.303 37.9548C119.414 37.9845 119.49 37.9754 119.533 37.9274C119.579 37.8657 119.606 37.7914 119.615 37.7047C120.198 37.52 120.746 37.2738 121.258 36.9663C121.785 36.6625 122.348 36.4426 122.947 36.3068C123.022 36.1934 123.119 36.1082 123.238 36.0511C123.357 35.9941 123.46 35.9176 123.545 35.8217C124.021 35.8159 124.472 35.7366 124.898 35.5839C125.325 35.4313 125.764 35.3119 126.218 35.2257C126.472 35.1605 126.702 35.1331 126.907 35.1435C127.129 35.1438 127.365 35.1477 127.615 35.1554C127.706 35.15 127.788 35.1496 127.86 35.1543C127.933 35.159 128.011 35.1725 128.094 35.1947C128.343 35.2615 128.572 35.3748 128.782 35.5346C128.995 35.6806 129.226 35.787 129.475 35.8538C129.544 35.8723 129.599 35.8871 129.641 35.8982C129.7 35.8992 129.759 35.9002 129.818 35.9012C129.975 36.2548 130.213 36.5558 130.532 36.8044C130.56 37.0342 130.608 37.24 130.678 37.4218C130.762 37.6074 130.846 37.7929 130.929 37.9784C131.017 38.1502 131.085 38.3389 131.133 38.5447C131.2 38.7404 131.215 38.9595 131.18 39.2021ZM128.815 39.7252C128.834 39.656 128.844 39.5919 128.845 39.5329C128.717 39.4543 128.601 39.3637 128.495 39.2612C128.389 39.1587 128.26 39.087 128.108 39.0462C128.011 39.0203 127.908 39.0151 127.8 39.0306C127.813 38.9301 127.79 38.8498 127.731 38.7898C127.687 38.7334 127.627 38.6803 127.552 38.6304C127.494 38.5703 127.425 38.5223 127.346 38.4862C127.284 38.44 127.233 38.3818 127.192 38.3117C127.18 38.1899 127.162 38.0662 127.136 37.9407C127.128 37.8051 127.069 37.6929 126.959 37.6042C126.801 37.6953 126.628 37.7602 126.44 37.7987C126.256 37.8234 126.064 37.8462 125.866 37.8672C125.681 37.8919 125.493 37.9304 125.301 37.9828C125.123 38.0388 124.96 38.1212 124.812 38.2299L124.439 38.1298C124.315 38.2598 124.166 38.3459 123.991 38.3881C123.82 38.4165 123.661 38.485 123.514 38.5937C123.262 38.6451 123.018 38.7278 122.78 38.842C122.559 38.9459 122.335 39.0638 122.107 39.1954C121.882 39.3133 121.656 39.438 121.428 39.5697C121.214 39.705 120.99 39.8229 120.755 39.9231C120.471 40.2623 120.18 40.5475 119.881 40.7788C119.599 40.9998 119.323 41.2297 119.051 41.4683C118.793 41.7107 118.549 41.9863 118.318 42.2951C118.104 42.5937 117.931 42.9921 117.798 43.4901L117.742 43.6977C117.723 43.7668 117.712 43.8379 117.707 43.9108C117.835 44.1526 117.925 44.3991 117.976 44.6501C118.041 44.9048 118.199 45.1177 118.45 45.2887C118.697 45.4735 118.975 45.5997 119.283 45.6675C119.605 45.7389 119.9 45.855 120.168 46.0159C120.865 46.0693 121.556 46.0392 122.238 45.9256C122.939 45.8019 123.62 45.6136 124.28 45.3607C124.382 45.3137 124.497 45.2705 124.627 45.231C124.759 45.1777 124.872 45.1187 124.963 45.0543C125.051 45.0036 125.126 44.9424 125.19 44.8705C125.268 44.8023 125.344 44.741 125.417 44.6867C125.576 44.5365 125.749 44.39 125.936 44.2472C126.122 44.1044 126.312 43.9773 126.505 43.8659C126.656 43.5801 126.823 43.3137 127.008 43.0666C127.197 42.8057 127.383 42.5518 127.568 42.3047C127.753 42.0577 127.919 41.7982 128.066 41.5262C128.227 41.2579 128.35 40.9646 128.435 40.6464C128.454 40.5773 128.467 40.4993 128.475 40.4126C128.498 40.3296 128.511 40.2517 128.516 40.1788C128.667 40.0562 128.767 39.9051 128.815 39.7252ZM143.222 51.7038C143.111 51.8965 142.974 52.0453 142.813 52.1503C142.651 52.2553 142.473 52.3409 142.277 52.4071C142.095 52.477 141.901 52.5362 141.695 52.5849C141.493 52.6197 141.294 52.6702 141.099 52.7364L140.829 52.6641C140.248 52.5084 139.835 52.2496 139.591 51.8876C139.365 51.5155 139.224 51.0997 139.169 50.6402C139.118 50.1668 139.116 49.6769 139.163 49.1705C139.223 48.6677 139.252 48.2009 139.249 47.77C139.046 47.8639 138.863 47.9928 138.7 48.1569C138.542 48.3071 138.376 48.4554 138.203 48.6019C138.044 48.7521 137.868 48.8829 137.675 48.9943C137.496 49.1094 137.282 49.1631 137.032 49.1555C136.964 49.2412 136.89 49.3251 136.808 49.4071C136.741 49.4928 136.686 49.5891 136.642 49.6961C136.293 49.7806 135.965 49.9001 135.656 50.0548C135.348 50.2094 135.038 50.3709 134.726 50.5394C134.414 50.7079 134.097 50.8676 133.774 51.0185C133.47 51.1593 133.14 51.2562 132.784 51.3093C132.774 51.2918 132.749 51.2774 132.707 51.2663C132.541 51.2218 132.378 51.2226 132.217 51.2685C132.06 51.3006 131.899 51.2944 131.733 51.2499C131.622 51.2203 131.524 51.1717 131.438 51.1043C131.366 51.0405 131.289 50.968 131.207 50.8867C131.139 50.8091 131.06 50.7435 130.971 50.6899C130.881 50.6363 130.78 50.6016 130.665 50.5857C130.594 50.2996 130.468 50.0213 130.288 49.7508C130.126 49.4701 130.055 49.184 130.073 48.8925C130.079 48.7606 130.092 48.6305 130.111 48.5023C130.148 48.3639 130.172 48.2219 130.181 48.0761C130.195 47.8575 130.195 47.6351 130.182 47.409C130.172 47.1691 130.176 46.933 130.194 46.7005C130.363 46.3455 130.542 45.9559 130.729 45.5317C130.907 45.09 131.097 44.6589 131.298 44.2384C131.517 43.8078 131.757 43.4123 132.017 43.0519C132.294 42.6813 132.596 42.3841 132.923 42.1603L132.941 42.0095C133 41.7881 133.097 41.5917 133.232 41.4203C133.367 41.2488 133.507 41.0862 133.652 40.9322C133.797 40.7783 133.928 40.6207 134.046 40.4594C134.163 40.2981 134.231 40.1012 134.249 39.8687C134.437 39.8302 134.628 39.8074 134.823 39.8002C135.018 39.7931 135.212 39.8154 135.405 39.8673C135.585 39.9155 135.744 39.9877 135.881 40.0838C135.824 40.1871 135.854 40.2692 135.971 40.3302L135.954 40.3925C135.876 40.683 135.766 40.9574 135.623 41.2155C135.479 41.4737 135.322 41.7282 135.151 41.9789C134.984 42.2158 134.815 42.4597 134.644 42.7104C134.49 42.951 134.356 43.2041 134.24 43.4697C134.181 43.4687 134.132 43.4853 134.093 43.5193C134.068 43.5571 134.043 43.5949 134.018 43.6327C133.993 43.6705 133.963 43.6996 133.928 43.7198C133.893 43.7401 133.848 43.7428 133.793 43.728C133.58 44.1899 133.36 44.6501 133.134 45.1083C132.925 45.5565 132.755 46.0227 132.626 46.5069C132.548 46.7974 132.496 47.1023 132.469 47.4215C132.443 47.7407 132.469 48.059 132.547 48.3765L132.636 48.378C132.788 48.4187 132.896 48.4848 132.961 48.5763C133.039 48.6714 133.145 48.7739 133.279 48.8839C133.397 48.8859 133.51 48.8791 133.618 48.8635C133.729 48.8341 133.795 48.7553 133.815 48.6271C133.998 48.6615 134.161 48.6607 134.304 48.6249C134.451 48.5753 134.586 48.515 134.709 48.4441L135.098 48.237C135.235 48.1698 135.385 48.1358 135.548 48.1351C135.57 48.0521 135.608 47.9954 135.66 47.965L135.818 47.8739C135.871 47.8435 135.909 47.8094 135.934 47.7716C135.977 47.7237 136.004 47.6494 136.016 47.5489C136.186 47.5795 136.322 47.5714 136.423 47.5245C136.539 47.4812 136.642 47.4274 136.733 47.3629C136.842 47.2883 136.944 47.2119 137.04 47.1335C137.135 47.0552 137.247 46.9963 137.376 46.9568C137.528 46.7752 137.734 46.5338 137.993 46.2324C138.265 45.9347 138.535 45.6213 138.801 45.2923C139.081 44.9669 139.327 44.6549 139.541 44.3562C139.772 44.0474 139.911 43.8031 139.96 43.6232C139.978 43.5541 139.974 43.4862 139.947 43.4198C139.935 43.357 139.944 43.2929 139.977 43.2275L139.993 43.1652C140.141 43.0565 140.279 42.9303 140.406 42.7865C140.548 42.6464 140.687 42.5133 140.825 42.387C140.976 42.2645 141.131 42.1577 141.289 42.0665C141.447 41.9754 141.632 41.9212 141.844 41.9039C142.047 42.0324 142.255 42.1401 142.469 42.2271C142.697 42.3178 142.903 42.4324 143.089 42.571C143.01 42.9206 142.937 43.3311 142.87 43.8025C142.803 44.2739 142.796 44.6872 142.849 45.0425C142.801 45.2223 142.748 45.3934 142.689 45.5557C142.645 45.7217 142.6 45.8877 142.556 46.0538C142.482 46.3305 142.413 46.6159 142.349 46.9102C142.298 47.2081 142.275 47.4909 142.277 47.7584C142.124 47.94 142.017 48.1484 141.954 48.3836C141.868 48.7018 141.835 49.0191 141.854 49.3356C141.877 49.6383 141.867 49.9542 141.823 50.2836C141.936 50.5808 142.138 50.7683 142.428 50.8462C142.497 50.8647 142.555 50.8726 142.6 50.8699C142.659 50.8709 142.72 50.865 142.783 50.8521C142.86 51.0063 142.923 51.1568 142.973 51.3035C143.04 51.4401 143.123 51.5736 143.222 51.7038ZM164.449 46.693C164.345 46.8581 164.211 47 164.046 47.1188L163.576 47.4601C163.428 47.5688 163.291 47.695 163.163 47.8388C163.053 47.9724 162.984 48.1467 162.956 48.3617C162.929 48.3543 162.894 48.345 162.853 48.3339C162.815 48.3089 162.782 48.2927 162.754 48.2853C162.533 48.226 162.345 48.235 162.191 48.3123C162.054 48.3795 161.88 48.4217 161.668 48.439C161.662 48.3486 161.648 48.2632 161.625 48.1829C161.606 48.0888 161.558 48.0168 161.483 47.9669C161.132 47.9471 160.785 47.9134 160.442 47.866C160.103 47.8047 159.76 47.7572 159.413 47.7236C159.253 47.7105 159.09 47.7112 158.923 47.7258C158.76 47.7265 158.589 47.7254 158.412 47.7224C158.322 47.7278 158.228 47.7176 158.131 47.6916C158.038 47.6518 157.941 47.6259 157.841 47.6138C157.505 47.5386 157.138 47.4699 156.739 47.4076C156.345 47.3315 155.971 47.3426 155.618 47.4409C155.487 47.3761 155.348 47.3165 155.199 47.2618C155.051 47.2072 154.901 47.1595 154.748 47.1188C154.416 47.0298 154.04 46.9661 153.621 46.9278C153.218 46.8794 152.841 46.9043 152.488 47.0026C152.427 46.9564 152.356 46.9152 152.277 46.8791C152.211 46.8468 152.13 46.8176 152.033 46.7917C152.006 46.7843 151.983 46.7856 151.966 46.7957C151.952 46.792 151.931 46.7865 151.903 46.7791C151.856 46.8999 151.837 47.0281 151.845 47.1637C151.87 47.2892 151.936 47.4033 152.042 47.5058C151.946 47.6431 151.874 47.8017 151.826 47.9816C151.763 48.2168 151.714 48.4557 151.678 48.6983C151.657 48.9446 151.614 49.1854 151.551 49.4206C151.481 49.6834 151.391 49.8817 151.281 50.0153C151.308 50.4674 151.259 50.9287 151.133 51.3991C151.088 51.5651 151.03 51.7274 150.958 51.886C150.903 52.0345 150.852 52.1987 150.803 52.3785C150.763 52.5307 150.785 52.67 150.869 52.7965C150.958 52.9092 150.982 53.0416 150.941 53.1938C150.926 53.2492 150.897 53.3008 150.855 53.3487C151.06 53.3591 151.261 53.3538 151.46 53.3328C151.662 53.298 151.86 53.3065 152.053 53.3584C152.164 53.3881 152.262 53.4367 152.348 53.5041C152.447 53.5753 152.529 53.6566 152.594 53.748C152.562 53.8134 152.527 53.8858 152.491 53.9651C152.469 54.0481 152.447 54.1312 152.425 54.2142C152.384 54.3663 152.345 54.5116 152.308 54.65C152.288 54.7782 152.265 54.9202 152.238 55.0761C152.075 55.2402 151.898 55.3779 151.705 55.4893C151.526 55.6044 151.377 55.7721 151.258 55.9925C151.051 55.9369 150.851 55.9353 150.659 55.9876C150.485 56.0299 150.314 56.0878 150.146 56.1614C149.981 56.2212 149.817 56.2809 149.653 56.3407C149.492 56.3867 149.329 56.3874 149.163 56.3429C148.955 56.2873 148.817 56.2207 148.749 56.1431C148.685 56.0517 148.641 55.9658 148.618 55.8855C148.595 55.8053 148.57 55.7319 148.544 55.6654C148.531 55.6027 148.467 55.5634 148.353 55.5475C148.373 55.3603 148.362 55.1794 148.32 55.005C148.282 54.8167 148.234 54.6336 148.178 54.4554C148.136 54.281 148.087 54.1047 148.031 53.9266C147.992 53.7383 147.975 53.5556 147.978 53.3785C147.991 52.9965 148.056 52.6137 148.174 52.2301C148.292 51.8464 148.33 51.4562 148.288 51.0594C148.367 50.8731 148.44 50.685 148.506 50.495C148.575 50.2912 148.636 50.0924 148.688 49.8987C148.791 49.5114 148.879 49.1272 148.952 48.7462C149.042 48.3552 149.134 47.9572 149.227 47.5522C149.164 47.4018 149.139 47.2467 149.152 47.0872C149.182 46.9174 149.211 46.7546 149.238 46.5987C149.208 46.5461 149.17 46.4916 149.126 46.4353C149.096 46.3827 149.083 46.3199 149.088 46.247C148.984 46.1897 148.905 46.1536 148.85 46.1388C148.656 46.0869 148.477 46.0908 148.313 46.1506C148.166 46.2003 148.037 46.2102 147.927 46.1806C147.816 46.1509 147.716 46.1093 147.626 46.0557C147.537 46.0021 147.444 45.9623 147.347 45.9363C147.264 45.9141 147.21 45.9219 147.185 45.9597C147.178 45.9873 147.143 46.0076 147.08 46.0204C147.031 46.037 146.927 46.0387 146.767 46.0256C146.608 46.0125 146.427 45.9938 146.226 45.9696C146.043 45.9352 145.859 45.9009 145.675 45.8665C145.506 45.8359 145.393 45.8131 145.338 45.7983C145.116 45.739 144.962 45.653 144.873 45.5403C144.775 45.4101 144.657 45.2674 144.521 45.1123C144.571 45.0367 144.599 44.985 144.607 44.9574C144.644 44.819 144.632 44.6972 144.571 44.592C144.514 44.4729 144.495 44.3788 144.513 44.3096C144.554 44.1574 144.648 44.0565 144.795 44.0068C144.928 43.9535 145.025 43.8387 145.087 43.6626C145.442 43.6095 145.795 43.5929 146.146 43.6127C146.496 43.6324 146.85 43.6679 147.207 43.7191C147.564 43.7703 147.916 43.8127 148.263 43.8463C148.624 43.8836 148.987 43.8845 149.352 43.849C149.445 43.8888 149.531 43.9267 149.611 43.9628C149.708 43.9887 149.804 44.0147 149.901 44.0406C150.316 44.1518 150.736 44.2197 151.159 44.2442C151.6 44.2586 152.035 44.3232 152.464 44.4381C152.575 44.4678 152.683 44.5043 152.79 44.5478C152.897 44.5913 153.002 44.6417 153.106 44.6991C153.681 44.7643 154.252 44.8208 154.817 44.8686C155.397 44.92 155.986 44.989 156.586 45.0755C156.87 45.122 157.145 45.1735 157.412 45.2301C157.696 45.2766 157.982 45.3161 158.27 45.3488C158.37 45.3609 158.445 45.3587 158.494 45.3421C158.56 45.3154 158.608 45.2468 158.638 45.1361C158.748 45.2248 158.879 45.2895 159.031 45.3303C159.266 45.3933 159.506 45.413 159.749 45.3893C159.993 45.3656 160.232 45.3853 160.467 45.4483C160.523 45.4631 160.569 45.483 160.607 45.508C160.649 45.5191 160.69 45.5302 160.732 45.5413C160.828 45.5673 160.888 45.5387 160.91 45.4557C160.95 45.3626 161.036 45.3189 161.168 45.3246C161.272 45.3228 161.416 45.3392 161.599 45.3735C161.783 45.4079 161.974 45.4441 162.171 45.4822C162.386 45.5101 162.58 45.5325 162.753 45.5493C162.944 45.556 163.091 45.5358 163.192 45.4889L163.399 45.2996C163.644 45.3801 163.794 45.539 163.849 45.7762C163.922 46.0032 163.934 46.2362 163.884 46.4751C163.925 46.5453 163.994 46.5933 164.09 46.6193C164.205 46.6351 164.304 46.6541 164.387 46.6764L164.449 46.693Z" fill="black"/>
</svg>
