<svg width="518" height="524" viewBox="0 0 518 524" fill="none" xmlns="http://www.w3.org/2000/svg">
<path d="M8.47347 221.013C13.067 228.236 10.9355 237.815 3.71268 242.409C-3.51015 247.002 -13.0892 244.871 -17.6827 237.648C-22.2762 230.425 -20.1447 220.846 -12.9219 216.253C-5.69909 211.659 3.87995 213.79 8.47347 221.013ZM-11.973 234.017C-9.38495 238.086 -3.98798 239.287 0.0814673 236.699C4.15091 234.111 5.35182 228.714 2.76376 224.645C0.175709 220.575 -5.22126 219.374 -9.2907 221.962C-13.3601 224.55 -14.5611 229.947 -11.973 234.017Z" fill="#023859" fill-opacity="0.37"/>
<path d="M43.1297 275.505C47.7232 282.728 45.5918 292.307 38.3689 296.9C31.1461 301.494 21.5671 299.362 16.9735 292.14C12.38 284.917 14.5115 275.338 21.7343 270.744C28.9572 266.151 38.5362 268.282 43.1297 275.505ZM22.6833 288.508C25.2713 292.578 30.6683 293.779 34.7377 291.191C38.8072 288.603 40.0081 283.206 37.42 279.136C34.832 275.067 29.435 273.866 25.3655 276.454C21.2961 279.042 20.0952 284.439 22.6833 288.508Z" fill="#023859" fill-opacity="0.37"/>
<path d="M77.786 329.997C82.3795 337.22 80.248 346.799 73.0252 351.392C65.8024 355.986 56.2233 353.854 51.6298 346.631C47.0363 339.408 49.1678 329.829 56.3906 325.236C63.6134 320.642 73.1925 322.774 77.786 329.997ZM57.3395 343C59.9276 347.07 65.3245 348.27 69.394 345.682C73.4634 343.094 74.6643 337.697 72.0763 333.628C69.4882 329.558 64.0912 328.358 60.0218 330.946C55.9524 333.534 54.7514 338.931 57.3395 343Z" fill="#023859" fill-opacity="0.37"/>
<path d="M112.442 384.489C117.036 391.711 114.904 401.291 107.681 405.884C100.459 410.478 90.8796 408.346 86.286 401.123C81.6925 393.9 83.824 384.321 91.0468 379.728C98.2697 375.134 107.849 377.266 112.442 384.489ZM91.9958 397.492C94.5838 401.561 99.9808 402.762 104.05 400.174C108.12 397.586 109.321 392.189 106.733 388.12C104.144 384.05 98.7475 382.85 94.678 385.438C90.6086 388.026 89.4077 393.423 91.9958 397.492Z" fill="#023859" fill-opacity="0.37"/>
<path d="M147.095 438.981C151.688 446.204 149.557 455.783 142.334 460.376C135.111 464.97 125.532 462.839 120.938 455.616C116.345 448.393 118.476 438.814 125.699 434.22C132.922 429.627 142.501 431.758 147.095 438.981ZM126.648 451.984C129.236 456.054 134.633 457.255 138.703 454.667C142.772 452.079 143.973 446.682 141.385 442.612C138.797 438.543 133.4 437.342 129.33 439.93C125.261 442.518 124.06 447.915 126.648 451.984Z" fill="#023859" fill-opacity="0.37"/>
<path d="M181.751 493.474C186.344 500.696 184.213 510.275 176.99 514.869C169.767 519.462 160.188 517.331 155.595 510.108C151.001 502.885 153.133 493.306 160.355 488.713C167.578 484.119 177.157 486.251 181.751 493.474ZM161.304 506.477C163.892 510.546 169.289 511.747 173.359 509.159C177.428 506.571 178.629 501.174 176.041 497.105C173.453 493.035 168.056 491.834 163.987 494.422C159.917 497.01 158.716 502.407 161.304 506.477Z" fill="#023859" fill-opacity="0.37"/>
<path d="M62.9657 186.358C67.5592 193.581 65.4277 203.16 58.2049 207.753C50.982 212.347 41.403 210.215 36.8095 202.992C32.216 195.77 34.3474 186.191 41.5703 181.597C48.7931 177.003 58.3721 179.135 62.9657 186.358ZM42.5192 199.361C45.1072 203.431 50.5042 204.632 54.5737 202.043C58.6431 199.455 59.844 194.058 57.256 189.989C54.6679 185.92 49.2709 184.719 45.2015 187.307C41.132 189.895 39.9311 195.292 42.5192 199.361Z" fill="#023859" fill-opacity="0.37"/>
<path d="M97.6219 240.849C102.215 248.072 100.084 257.651 92.8611 262.245C85.6383 266.838 76.0593 264.707 71.4657 257.484C66.8722 250.261 69.0037 240.682 76.2265 236.089C83.4493 231.495 93.0284 233.627 97.6219 240.849ZM77.1754 253.853C79.7635 257.922 85.1605 259.123 89.2299 256.535C93.2993 253.947 94.5003 248.55 91.9122 244.481C89.3241 240.411 83.9272 239.21 79.8577 241.798C75.7883 244.386 74.5874 249.783 77.1754 253.853Z" fill="#023859" fill-opacity="0.37"/>
<path d="M132.278 295.341C136.872 302.564 134.74 312.143 127.517 316.737C120.295 321.33 110.716 319.199 106.122 311.976C101.528 304.753 103.66 295.174 110.883 290.58C118.106 285.987 127.685 288.118 132.278 295.341ZM111.832 308.345C114.42 312.414 119.817 313.615 123.886 311.027C127.956 308.439 129.157 303.042 126.568 298.972C123.98 294.903 118.583 293.702 114.514 296.29C110.445 298.878 109.244 304.275 111.832 308.345Z" fill="#023859" fill-opacity="0.37"/>
<path d="M166.934 349.834C171.528 357.057 169.396 366.636 162.174 371.229C154.951 375.823 145.372 373.691 140.778 366.468C136.185 359.246 138.316 349.667 145.539 345.073C152.762 340.48 162.341 342.611 166.934 349.834ZM146.488 362.837C149.076 366.907 154.473 368.108 158.542 365.52C162.612 362.931 163.813 357.535 161.225 353.465C158.637 349.396 153.24 348.195 149.17 350.783C145.101 353.371 143.9 358.768 146.488 362.837Z" fill="#023859" fill-opacity="0.37"/>
<path d="M201.587 404.326C206.18 411.549 204.049 421.128 196.826 425.722C189.603 430.315 180.024 428.184 175.431 420.961C170.837 413.738 172.969 404.159 180.191 399.566C187.414 394.972 196.993 397.103 201.587 404.326ZM181.14 417.33C183.728 421.399 189.125 422.6 193.195 420.012C197.264 417.424 198.465 412.027 195.877 407.958C193.289 403.888 187.892 402.687 183.823 405.275C179.753 407.863 178.552 413.26 181.14 417.33Z" fill="#023859" fill-opacity="0.37"/>
<path d="M236.243 458.819C240.837 466.042 238.705 475.621 231.482 480.214C224.259 484.808 214.68 482.676 210.087 475.453C205.493 468.231 207.625 458.651 214.848 454.058C222.07 449.464 231.649 451.596 236.243 458.819ZM215.797 471.822C218.385 475.892 223.782 477.092 227.851 474.504C231.92 471.916 233.121 466.519 230.533 462.45C227.945 458.381 222.548 457.18 218.479 459.768C214.409 462.356 213.208 467.753 215.797 471.822Z" fill="#023859" fill-opacity="0.37"/>
<path d="M117.462 151.702C122.055 158.925 119.924 168.504 112.701 173.098C105.478 177.691 95.8991 175.56 91.3056 168.337C86.7121 161.114 88.8435 151.535 96.0664 146.941C103.289 142.348 112.868 144.479 117.462 151.702ZM97.0153 164.706C99.6033 168.775 105 169.976 109.07 167.388C113.139 164.8 114.34 159.403 111.752 155.333C109.164 151.264 103.767 150.063 99.6976 152.651C95.6281 155.239 94.4272 160.636 97.0153 164.706Z" fill="#023859" fill-opacity="0.37"/>
<path d="M152.118 206.194C156.712 213.417 154.58 222.996 147.357 227.589C140.134 232.183 130.555 230.051 125.962 222.829C121.368 215.606 123.5 206.027 130.723 201.433C137.945 196.84 147.524 198.971 152.118 206.194ZM131.672 219.197C134.26 223.267 139.657 224.468 143.726 221.88C147.795 219.292 148.996 213.895 146.408 209.825C143.82 205.756 138.423 204.555 134.354 207.143C130.284 209.731 129.083 215.128 131.672 219.197Z" fill="#023859" fill-opacity="0.37"/>
<path d="M186.774 260.686C191.368 267.909 189.236 277.488 182.013 282.082C174.791 286.675 165.212 284.544 160.618 277.321C156.025 270.098 158.156 260.519 165.379 255.926C172.602 251.332 182.181 253.464 186.774 260.686ZM166.328 273.69C168.916 277.759 174.313 278.96 178.382 276.372C182.452 273.784 183.653 268.387 181.065 264.318C178.476 260.248 173.08 259.047 169.01 261.635C164.941 264.223 163.74 269.62 166.328 273.69Z" fill="#023859" fill-opacity="0.37"/>
<path d="M221.427 315.178C226.02 322.401 223.889 331.98 216.666 336.573C209.443 341.167 199.864 339.036 195.27 331.813C190.677 324.59 192.808 315.011 200.031 310.417C207.254 305.824 216.833 307.955 221.427 315.178ZM200.98 328.181C203.568 332.251 208.965 333.452 213.035 330.864C217.104 328.276 218.305 322.879 215.717 318.809C213.129 314.74 207.732 313.539 203.662 316.127C199.593 318.715 198.392 324.112 200.98 328.181Z" fill="#023859" fill-opacity="0.37"/>
<path d="M256.083 369.672C260.676 376.894 258.545 386.473 251.322 391.067C244.099 395.66 234.52 393.529 229.927 386.306C225.333 379.083 227.465 369.504 234.687 364.911C241.91 360.317 251.489 362.449 256.083 369.672ZM235.636 382.675C238.224 386.744 243.621 387.945 247.691 385.357C251.76 382.769 252.961 377.372 250.373 373.303C247.785 369.233 242.388 368.032 238.319 370.62C234.249 373.208 233.048 378.605 235.636 382.675Z" fill="#023859" fill-opacity="0.37"/>
<path d="M290.739 424.163C295.333 431.386 293.201 440.965 285.978 445.559C278.755 450.152 269.176 448.021 264.583 440.798C259.989 433.575 262.121 423.996 269.344 419.402C276.567 414.809 286.146 416.94 290.739 424.163ZM270.293 437.167C272.881 441.236 278.278 442.437 282.347 439.849C286.417 437.261 287.617 431.864 285.029 427.794C282.441 423.725 277.044 422.524 272.975 425.112C268.905 427.7 267.705 433.097 270.293 437.167Z" fill="#023859" fill-opacity="0.37"/>
<path d="M171.95 117.047C176.544 124.27 174.412 133.849 167.189 138.442C159.966 143.036 150.387 140.904 145.794 133.681C141.2 126.459 143.332 116.879 150.555 112.286C157.777 107.692 167.357 109.824 171.95 117.047ZM151.504 130.05C154.092 134.12 159.489 135.32 163.558 132.732C167.627 130.144 168.828 124.747 166.24 120.678C163.652 116.609 158.255 115.408 154.186 117.996C150.116 120.584 148.916 125.981 151.504 130.05Z" fill="#023859" fill-opacity="0.37"/>
<path d="M206.602 171.539C211.196 178.762 209.064 188.341 201.842 192.935C194.619 197.528 185.04 195.397 180.446 188.174C175.853 180.951 177.984 171.372 185.207 166.778C192.43 162.185 202.009 164.316 206.602 171.539ZM186.156 184.543C188.744 188.612 194.141 189.813 198.21 187.225C202.28 184.637 203.481 179.24 200.893 175.17C198.305 171.101 192.908 169.9 188.838 172.488C184.769 175.076 183.568 180.473 186.156 184.543Z" fill="#023859" fill-opacity="0.37"/>
<path d="M241.259 226.031C245.852 233.254 243.721 242.833 236.498 247.426C229.275 252.02 219.696 249.888 215.102 242.665C210.509 235.443 212.64 225.864 219.863 221.27C227.086 216.677 236.665 218.808 241.259 226.031ZM220.812 239.034C223.4 243.104 228.797 244.305 232.867 241.717C236.936 239.129 238.137 233.732 235.549 229.662C232.961 225.593 227.564 224.392 223.494 226.98C219.425 229.568 218.224 234.965 220.812 239.034Z" fill="#023859" fill-opacity="0.37"/>
<path d="M275.915 280.523C280.508 287.745 278.377 297.324 271.154 301.918C263.931 306.511 254.352 304.38 249.759 297.157C245.165 289.934 247.297 280.355 254.519 275.762C261.742 271.168 271.321 273.3 275.915 280.523ZM255.468 293.526C258.056 297.595 263.453 298.796 267.523 296.208C271.592 293.62 272.793 288.223 270.205 284.154C267.617 280.084 262.22 278.883 258.151 281.472C254.081 284.06 252.88 289.457 255.468 293.526Z" fill="#023859" fill-opacity="0.37"/>
<path d="M310.571 335.016C315.165 342.239 313.033 351.818 305.81 356.411C298.588 361.005 289.008 358.873 284.415 351.651C279.821 344.428 281.953 334.849 289.176 330.255C296.399 325.662 305.978 327.793 310.571 335.016ZM290.125 348.019C292.713 352.089 298.11 353.29 302.179 350.702C306.249 348.114 307.449 342.717 304.861 338.647C302.273 334.578 296.876 333.377 292.807 335.965C288.738 338.553 287.537 343.95 290.125 348.019Z" fill="#023859" fill-opacity="0.37"/>
<path d="M345.227 389.508C349.821 396.731 347.689 406.31 340.467 410.903C333.244 415.497 323.665 413.365 319.071 406.142C314.478 398.919 316.609 389.34 323.832 384.747C331.055 380.153 340.634 382.285 345.227 389.508ZM324.781 402.511C327.369 406.581 332.766 407.781 336.835 405.193C340.905 402.605 342.106 397.208 339.518 393.139C336.93 389.069 331.533 387.869 327.463 390.457C323.394 393.045 322.193 398.442 324.781 402.511Z" fill="#023859" fill-opacity="0.37"/>
<path d="M226.442 82.392C231.036 89.6148 228.904 99.1938 221.681 103.787C214.459 108.381 204.88 106.249 200.286 99.0266C195.693 91.8037 197.824 82.2247 205.047 77.6312C212.27 73.0377 221.849 75.1691 226.442 82.392ZM205.996 95.3954C208.584 99.4648 213.981 100.666 218.05 98.0777C222.12 95.4896 223.321 90.0926 220.733 86.0232C218.144 81.9537 212.747 80.7528 208.678 83.3409C204.609 85.9289 203.408 91.3259 205.996 95.3954Z" fill="#023859" fill-opacity="0.37"/>
<path d="M261.098 136.884C265.692 144.107 263.561 153.686 256.338 158.279C249.115 162.873 239.536 160.741 234.942 153.518C230.349 146.295 232.48 136.716 239.703 132.123C246.926 127.529 256.505 129.661 261.098 136.884ZM240.652 149.887C243.24 153.957 248.637 155.157 252.706 152.569C256.776 149.981 257.977 144.584 255.389 140.515C252.801 136.445 247.404 135.245 243.334 137.833C239.265 140.421 238.064 145.818 240.652 149.887Z" fill="#023859" fill-opacity="0.37"/>
<path d="M295.751 191.375C300.344 198.598 298.213 208.177 290.99 212.771C283.767 217.364 274.188 215.233 269.595 208.01C265.001 200.787 267.133 191.208 274.355 186.615C281.578 182.021 291.157 184.153 295.751 191.375ZM275.304 204.379C277.892 208.448 283.289 209.649 287.359 207.061C291.428 204.473 292.629 199.076 290.041 195.007C287.453 190.937 282.056 189.736 277.987 192.324C273.917 194.912 272.716 200.309 275.304 204.379Z" fill="#023859" fill-opacity="0.37"/>
<path d="M330.407 245.867C335.001 253.09 332.869 262.669 325.646 267.262C318.423 271.856 308.844 269.724 304.251 262.502C299.657 255.279 301.789 245.7 309.012 241.106C316.235 236.513 325.814 238.644 330.407 245.867ZM309.961 258.87C312.549 262.94 317.946 264.141 322.015 261.553C326.085 258.965 327.285 253.568 324.697 249.498C322.109 245.429 316.712 244.228 312.643 246.816C308.573 249.404 307.373 254.801 309.961 258.87Z" fill="#023859" fill-opacity="0.37"/>
<path d="M365.063 300.36C369.657 307.583 367.525 317.162 360.303 321.756C353.08 326.349 343.501 324.218 338.907 316.995C334.314 309.772 336.445 300.193 343.668 295.6C350.891 291.006 360.47 293.138 365.063 300.36ZM344.617 313.364C347.205 317.433 352.602 318.634 356.671 316.046C360.741 313.458 361.942 308.061 359.354 303.992C356.766 299.922 351.369 298.721 347.299 301.309C343.23 303.897 342.029 309.294 344.617 313.364Z" fill="#023859" fill-opacity="0.37"/>
<path d="M399.72 354.852C404.313 362.075 402.182 371.654 394.959 376.248C387.736 380.841 378.157 378.71 373.563 371.487C368.97 364.264 371.101 354.685 378.324 350.091C385.547 345.498 395.126 347.629 399.72 354.852ZM379.273 367.856C381.861 371.925 387.258 373.126 391.328 370.538C395.397 367.95 396.598 362.553 394.01 358.483C391.422 354.414 386.025 353.213 381.955 355.801C377.886 358.389 376.685 363.786 379.273 367.856Z" fill="#023859" fill-opacity="0.37"/>
<path d="M280.938 47.7365C285.532 54.9593 283.4 64.5383 276.178 69.1318C268.955 73.7254 259.376 71.5939 254.782 64.3711C250.189 57.1482 252.32 47.5692 259.543 42.9757C266.766 38.3822 276.345 40.5136 280.938 47.7365ZM260.492 60.7398C263.08 64.8093 268.477 66.0102 272.546 63.4221C276.616 60.8341 277.817 55.4371 275.229 51.3677C272.641 47.2982 267.244 46.0973 263.174 48.6854C259.105 51.2734 257.904 56.6704 260.492 60.7398Z" fill="#023859" fill-opacity="0.37"/>
<path d="M315.591 102.228C320.184 109.451 318.053 119.03 310.83 123.624C303.607 128.217 294.028 126.086 289.434 118.863C284.841 111.64 286.972 102.061 294.195 97.4674C301.418 92.8739 310.997 95.0053 315.591 102.228ZM295.144 115.232C297.732 119.301 303.129 120.502 307.199 117.914C311.268 115.326 312.469 109.929 309.881 105.859C307.293 101.79 301.896 100.589 297.826 103.177C293.757 105.765 292.556 111.162 295.144 115.232Z" fill="#023859" fill-opacity="0.37"/>
<path d="M350.247 156.72C354.84 163.943 352.709 173.522 345.486 178.115C338.263 182.709 328.684 180.577 324.091 173.354C319.497 166.132 321.629 156.553 328.852 151.959C336.074 147.366 345.653 149.497 350.247 156.72ZM329.8 169.723C332.388 173.793 337.785 174.994 341.855 172.406C345.924 169.817 347.125 164.421 344.537 160.351C341.949 156.282 336.552 155.081 332.483 157.669C328.413 160.257 327.212 165.654 329.8 169.723Z" fill="#023859" fill-opacity="0.37"/>
<path d="M384.899 211.212C389.493 218.434 387.361 228.013 380.138 232.607C372.916 237.2 363.337 235.069 358.743 227.846C354.15 220.623 356.281 211.044 363.504 206.451C370.727 201.857 380.306 203.989 384.899 211.212ZM364.453 224.215C367.041 228.284 372.438 229.485 376.507 226.897C380.577 224.309 381.778 218.912 379.19 214.843C376.601 210.773 371.205 209.572 367.135 212.16C363.066 214.749 361.865 220.145 364.453 224.215Z" fill="#023859" fill-opacity="0.37"/>
<path d="M419.555 265.705C424.149 272.928 422.018 282.507 414.795 287.1C407.572 291.694 397.993 289.562 393.399 282.339C388.806 275.116 390.937 265.537 398.16 260.944C405.383 256.35 414.962 258.482 419.555 265.705ZM399.109 278.708C401.697 282.778 407.094 283.978 411.163 281.39C415.233 278.802 416.434 273.405 413.846 269.336C411.258 265.266 405.861 264.066 401.791 266.654C397.722 269.242 396.521 274.639 399.109 278.708Z" fill="#023859" fill-opacity="0.37"/>
<path d="M454.212 320.197C458.805 327.419 456.674 336.999 449.451 341.592C442.228 346.186 432.649 344.054 428.056 336.831C423.462 329.608 425.594 320.029 432.816 315.436C440.039 310.842 449.618 312.974 454.212 320.197ZM433.765 333.2C436.353 337.269 441.75 338.47 445.82 335.882C449.889 333.294 451.09 327.897 448.502 323.828C445.914 319.758 440.517 318.558 436.448 321.146C432.378 323.734 431.177 329.131 433.765 333.2Z" fill="#023859" fill-opacity="0.37"/>
<path d="M335.43 13.0807C340.024 20.3035 337.893 29.8826 330.67 34.4761C323.447 39.0696 313.868 36.9381 309.274 29.7153C304.681 22.4925 306.812 12.9134 314.035 8.31991C321.258 3.72639 330.837 5.85787 335.43 13.0807ZM314.984 26.0841C317.572 30.1535 322.969 31.3544 327.038 28.7664C331.108 26.1783 332.309 20.7814 329.721 16.7119C327.133 12.6425 321.736 11.4416 317.666 14.0296C313.597 16.6177 312.396 22.0146 314.984 26.0841Z" fill="#023859" fill-opacity="0.37"/>
<path d="M370.083 67.5726C374.676 74.7955 372.545 84.3745 365.322 88.968C358.099 93.5615 348.52 91.4301 343.927 84.2072C339.333 76.9844 341.465 67.4054 348.687 62.8119C355.91 58.2183 365.489 60.3498 370.083 67.5726ZM349.636 80.576C352.224 84.6455 357.621 85.8464 361.691 83.2583C365.76 80.6703 366.961 75.2733 364.373 71.2039C361.785 67.1344 356.388 65.9335 352.319 68.5216C348.249 71.1096 347.048 76.5066 349.636 80.576Z" fill="#023859" fill-opacity="0.37"/>
<path d="M404.739 122.064C409.333 129.287 407.201 138.866 399.978 143.46C392.755 148.053 383.176 145.922 378.583 138.699C373.989 131.476 376.121 121.897 383.344 117.304C390.567 112.71 400.146 114.842 404.739 122.064ZM384.293 135.068C386.881 139.137 392.278 140.338 396.347 137.75C400.417 135.162 401.617 129.765 399.029 125.696C396.441 121.626 391.044 120.425 386.975 123.013C382.905 125.601 381.705 130.998 384.293 135.068Z" fill="#023859" fill-opacity="0.37"/>
<path d="M439.395 176.556C443.989 183.779 441.857 193.358 434.635 197.951C427.412 202.545 417.833 200.413 413.239 193.191C408.646 185.968 410.777 176.389 418 171.795C425.223 167.202 434.802 169.333 439.395 176.556ZM418.949 189.559C421.537 193.629 426.934 194.83 431.003 192.242C435.073 189.654 436.274 184.257 433.686 180.187C431.098 176.118 425.701 174.917 421.631 177.505C417.562 180.093 416.361 185.49 418.949 189.559Z" fill="#023859" fill-opacity="0.37"/>
<path d="M474.052 231.049C478.645 238.272 476.514 247.851 469.291 252.445C462.068 257.038 452.489 254.907 447.895 247.684C443.302 240.461 445.433 230.882 452.656 226.288C459.879 221.695 469.458 223.826 474.052 231.049ZM453.605 244.053C456.193 248.122 461.59 249.323 465.66 246.735C469.729 244.147 470.93 238.75 468.342 234.68C465.754 230.611 460.357 229.41 456.287 231.998C452.218 234.586 451.017 239.983 453.605 244.053Z" fill="#023859" fill-opacity="0.37"/>
<path d="M508.708 285.541C513.301 292.764 511.17 302.343 503.947 306.937C496.724 311.53 487.145 309.399 482.552 302.176C477.958 294.953 480.09 285.374 487.312 280.78C494.535 276.187 504.114 278.318 508.708 285.541ZM488.261 298.545C490.849 302.614 496.246 303.815 500.316 301.227C504.385 298.639 505.586 293.242 502.998 289.172C500.41 285.103 495.013 283.902 490.944 286.49C486.874 289.078 485.673 294.475 488.261 298.545Z" fill="#023859" fill-opacity="0.37"/>
</svg>
