<svg width="113" height="113" viewBox="0 0 113 113" fill="none" xmlns="http://www.w3.org/2000/svg">
<path d="M31.7812 31.7812C18.1683 31.7812 7.0625 42.887 7.0625 56.5C7.0625 70.1306 18.1506 81.2188 31.7812 81.2188C42.1278 81.2188 48.4452 75.5334 53.3007 68.5274C51.8529 66.1968 50.6381 63.8944 49.4375 61.6874C45.1047 68.8452 40.2492 74.1562 31.7812 74.1562C22.0421 74.1562 14.125 66.2392 14.125 56.5C14.125 46.7078 21.9891 38.8438 31.7812 38.8438C37.4913 38.8438 41.1214 40.8848 44.4726 44.3631C47.8237 47.8378 50.6523 52.8593 53.5196 58.1562C56.3905 63.453 59.3003 69.0253 63.5625 73.4924C67.8247 77.9629 73.7007 81.2188 81.2188 81.2188C94.8317 81.2188 105.938 70.113 105.938 56.5C105.938 42.8694 94.8494 31.7812 81.2188 31.7812C70.9287 31.7812 64.5689 37.2865 59.6993 44.1406C61.1471 46.4289 62.4713 48.6783 63.672 50.8712C67.9766 43.9182 72.7791 38.8438 81.2188 38.8438C90.9579 38.8438 98.875 46.7608 98.875 56.5C98.875 66.2922 91.0109 74.1562 81.2188 74.1562C75.6041 74.1562 72.0728 72.1152 68.7499 68.6369C65.4235 65.1622 62.5843 60.1407 59.6993 54.8438C56.8178 49.547 53.8516 43.9747 49.547 39.5041C45.2424 35.0371 39.3664 31.7812 31.7812 31.7812Z" fill="#023859"/>
</svg>
